<svg width="232" height="232" viewBox="0 0 232 232" fill="none" xmlns="http://www.w3.org/2000/svg">
<g clip-path="url(#clip0)">
<path d="M188.993 234.61H43.7579C39.3134 234.61 35.051 232.845 31.9083 229.702C28.7656 226.56 27 222.297 27 217.853V16.7579C27 12.3134 28.7656 8.05099 31.9083 4.90827C35.051 1.76556 39.3134 0 43.7579 0H149.891L205.751 55.8596V217.853C205.751 222.297 203.985 226.56 200.843 229.702C197.7 232.845 193.437 234.61 188.993 234.61Z" fill="#43A047"/>
<path d="M205.751 55.8597H149.891V0L205.751 55.8597Z" fill="#C8E6C9"/>
<path d="M149.891 55.8596L205.751 111.719V55.8596H149.891Z" fill="#2E7D32"/>
<path d="M163.703 101.594C161.488 93.397 144.997 85.3334 116.151 85.3334C87.3046 85.3334 70.8123 93.397 68.5987 101.594C68.438 101.875 68.3193 102.183 68.3193 102.531V103.486V125.46V126.416V127.371V148.39V149.346V150.301V173.231C68.3193 173.54 68.4016 173.833 68.5432 174.093C70.8028 183.446 91.0183 190.428 116.151 190.428C141.226 190.428 161.409 183.475 163.743 174.156C163.896 173.882 163.982 173.567 163.982 173.231V150.301V149.346V148.39V127.371V126.416V125.46V103.486V102.531C163.982 102.183 163.864 101.875 163.703 101.594ZM160.005 150.272C159.951 150.504 159.877 150.733 159.783 150.966C159.706 151.155 159.613 151.344 159.509 151.533C159.381 151.769 159.238 152.004 159.067 152.239C158.941 152.416 158.798 152.592 158.648 152.768C158.436 153.018 158.21 153.269 157.954 153.517C157.799 153.668 157.629 153.817 157.456 153.968C157.143 154.241 156.815 154.512 156.45 154.782C156.293 154.898 156.125 155.011 155.958 155.126C155.526 155.424 155.074 155.72 154.579 156.011C154.449 156.089 154.309 156.163 154.173 156.24C153.603 156.561 153.008 156.88 152.365 157.19C152.283 157.23 152.197 157.268 152.113 157.306C151.395 157.644 150.645 157.977 149.843 158.298C149.821 158.307 149.798 158.315 149.775 158.325C145.43 160.058 139.872 161.516 133.395 162.471C133.363 162.475 133.33 162.479 133.298 162.484C132.039 162.67 130.747 162.834 129.421 162.979C129.205 163.002 128.977 163.017 128.759 163.04C127.602 163.161 126.431 163.272 125.226 163.36C124.674 163.4 124.097 163.419 123.536 163.453C122.629 163.507 121.732 163.566 120.802 163.598C119.283 163.646 117.733 163.677 116.151 163.677C114.569 163.677 113.019 163.646 111.498 163.593C110.568 163.56 109.671 163.499 108.764 163.447C108.203 163.415 107.625 163.394 107.074 163.354C105.869 163.266 104.698 163.155 103.541 163.035C103.322 163.012 103.095 162.996 102.879 162.974C101.553 162.828 100.261 162.662 99.0023 162.479C98.9698 162.475 98.9373 162.471 98.9048 162.465C92.4284 161.51 86.8703 160.052 82.5253 158.319C82.5024 158.311 82.4794 158.302 82.4564 158.292C81.6548 157.971 80.9029 157.639 80.1873 157.3C80.105 157.26 80.017 157.222 79.9348 157.184C79.2919 156.874 78.6969 156.557 78.1267 156.234C77.9928 156.158 77.8512 156.083 77.7211 156.005C77.2256 155.714 76.774 155.418 76.3416 155.12C76.1771 155.005 76.0068 154.893 75.8499 154.776C75.4845 154.507 75.1573 154.235 74.8436 153.962C74.6733 153.813 74.5011 153.664 74.3461 153.511C74.0897 153.263 73.864 153.014 73.6516 152.762C73.5024 152.586 73.3589 152.411 73.2326 152.233C73.0642 151.998 72.9207 151.763 72.7906 151.528C72.6873 151.339 72.5955 151.149 72.517 150.96C72.4233 150.729 72.3487 150.498 72.2951 150.267C72.2243 149.963 72.1459 149.653 72.1459 149.346C72.1459 149.13 72.1707 148.914 72.2052 148.7C72.253 148.411 72.2262 148.123 72.1459 147.849V133.664C72.1994 133.713 72.2664 133.761 72.3219 133.811C72.739 134.178 73.1637 134.543 73.642 134.894C80.8493 140.338 95.2619 144.569 116.151 144.569C136.952 144.569 151.328 140.372 158.566 134.961C159.144 134.541 159.664 134.107 160.154 133.665L160.156 133.664V147.849C160.076 148.123 160.049 148.411 160.097 148.7C160.133 148.914 160.156 149.13 160.156 149.346C160.156 149.653 160.078 149.963 160.005 150.272ZM160.156 110.734V124.92C160.076 125.193 160.049 125.481 160.097 125.77C160.133 125.984 160.156 126.2 160.156 126.416C160.156 126.723 160.078 127.033 160.005 127.343C159.951 127.574 159.877 127.803 159.783 128.036C159.706 128.225 159.613 128.415 159.509 128.604C159.381 128.839 159.238 129.074 159.067 129.309C158.941 129.487 158.798 129.662 158.648 129.838C158.436 130.088 158.21 130.339 157.954 130.587C157.799 130.738 157.629 130.887 157.456 131.038C157.143 131.311 156.815 131.583 156.45 131.852C156.293 131.969 156.125 132.081 155.958 132.196C155.526 132.494 155.074 132.79 154.579 133.081C154.449 133.159 154.309 133.234 154.173 133.31C153.603 133.631 153.008 133.95 152.365 134.26C152.283 134.3 152.197 134.338 152.113 134.376C151.395 134.715 150.645 135.047 149.843 135.368C149.821 135.378 149.798 135.385 149.775 135.395C145.43 137.128 139.872 138.586 133.395 139.541C133.363 139.545 133.33 139.549 133.298 139.555C132.039 139.74 130.747 139.904 129.421 140.05C129.205 140.072 128.977 140.088 128.759 140.111C127.602 140.231 126.431 140.342 125.226 140.43C124.674 140.47 124.097 140.489 123.536 140.523C122.629 140.577 121.732 140.636 120.802 140.669C119.283 140.716 117.733 140.747 116.151 140.747C114.569 140.747 113.019 140.716 111.498 140.663C110.568 140.63 109.671 140.569 108.764 140.518C108.203 140.485 107.625 140.464 107.074 140.424C105.869 140.336 104.698 140.225 103.541 140.105C103.322 140.082 103.095 140.067 102.879 140.044C101.553 139.899 100.261 139.732 99.0023 139.549C98.9698 139.545 98.9373 139.541 98.9048 139.536C92.4284 138.58 86.8703 137.122 82.5253 135.389C82.5024 135.381 82.4794 135.372 82.4564 135.362C81.6548 135.041 80.9029 134.709 80.1873 134.371C80.105 134.33 80.017 134.292 79.9348 134.254C79.2919 133.944 78.6969 133.627 78.1267 133.304C77.9928 133.228 77.8512 133.153 77.7211 133.075C77.2256 132.785 76.774 132.488 76.3416 132.19C76.1771 132.076 76.0068 131.963 75.8499 131.846C75.4845 131.577 75.1573 131.306 74.8436 131.032C74.6733 130.883 74.5011 130.734 74.3461 130.581C74.0897 130.333 73.864 130.085 73.6516 129.832C73.5024 129.657 73.3589 129.481 73.2326 129.303C73.0642 129.068 72.9207 128.833 72.7906 128.598C72.6873 128.409 72.5955 128.22 72.517 128.03C72.4233 127.799 72.3487 127.568 72.2951 127.337C72.2243 127.033 72.1459 126.723 72.1459 126.416C72.1459 126.2 72.1707 125.984 72.2052 125.77C72.253 125.481 72.2262 125.193 72.1459 124.92V110.734C72.3755 110.942 72.6376 111.147 72.8863 111.353C73.024 111.468 73.1522 111.582 73.2976 111.697C73.8716 112.148 74.4915 112.593 75.1631 113.027C75.3027 113.117 75.4596 113.204 75.605 113.294C76.1675 113.644 76.7626 113.986 77.3882 114.322C77.6197 114.447 77.8512 114.569 78.0904 114.691C78.7887 115.047 79.5215 115.392 80.2925 115.727C80.4188 115.782 80.5336 115.84 80.6618 115.893C81.5591 116.273 82.5119 116.636 83.503 116.988C83.7766 117.085 84.0636 117.177 84.3448 117.273C85.1331 117.538 85.9481 117.792 86.7919 118.039C87.0961 118.127 87.3946 118.218 87.7064 118.303C88.8257 118.612 89.9813 118.906 91.1943 119.178C91.3608 119.216 91.5406 119.246 91.709 119.283C92.7785 119.516 93.8882 119.732 95.0285 119.934C95.415 120.003 95.8072 120.068 96.2013 120.133C97.2861 120.311 98.4035 120.473 99.5495 120.622C99.8442 120.66 100.125 120.704 100.424 120.741C101.847 120.913 103.321 121.06 104.834 121.186C105.207 121.217 105.595 121.239 105.974 121.266C107.185 121.354 108.423 121.427 109.69 121.484C110.151 121.505 110.61 121.526 111.081 121.543C112.73 121.599 114.41 121.639 116.151 121.639C117.892 121.639 119.572 121.599 121.221 121.543C121.69 121.526 122.149 121.505 122.612 121.484C123.879 121.427 125.116 121.354 126.328 121.266C126.706 121.238 127.093 121.217 127.468 121.186C128.981 121.062 130.454 120.913 131.878 120.741C132.176 120.704 132.458 120.66 132.752 120.622C133.898 120.473 135.014 120.311 136.1 120.133C136.495 120.068 136.887 120.003 137.273 119.934C138.414 119.732 139.523 119.516 140.593 119.283C140.761 119.246 140.941 119.214 141.108 119.178C142.321 118.906 143.476 118.61 144.595 118.303C144.907 118.217 145.206 118.127 145.51 118.039C146.354 117.792 147.169 117.538 147.957 117.273C148.238 117.177 148.525 117.085 148.799 116.988C149.79 116.636 150.745 116.273 151.64 115.893C151.768 115.84 151.883 115.782 152.009 115.727C152.78 115.39 153.513 115.047 154.211 114.691C154.451 114.569 154.684 114.447 154.914 114.322C155.539 113.988 156.134 113.646 156.697 113.294C156.842 113.204 156.999 113.117 157.139 113.027C157.81 112.593 158.43 112.15 159.004 111.697C159.148 111.582 159.276 111.468 159.416 111.353C159.664 111.147 159.926 110.942 160.156 110.734ZM116.151 89.155C142.085 89.155 160.156 96.7065 160.156 103.486C160.156 110.266 142.085 117.817 116.151 117.817C90.2166 117.817 72.1459 110.266 72.1459 103.486C72.1459 96.7065 90.2166 89.155 116.151 89.155ZM160.156 172.663C160.129 172.747 160.11 172.833 160.095 172.921C159.01 179.531 141.092 186.606 116.151 186.606C91.2096 186.606 73.2919 179.531 72.2071 172.921C72.1918 172.835 72.1707 172.751 72.1459 172.671V156.593C72.1994 156.643 72.2664 156.691 72.3219 156.74C72.739 157.107 73.1637 157.472 73.642 157.824C80.8493 163.268 95.2619 167.498 116.151 167.498C136.952 167.498 151.328 163.302 158.566 157.891C159.144 157.47 159.664 157.037 160.154 156.595L160.156 156.593V172.663V172.663Z" fill="#E8F5E9" stroke="#E8F5E9" stroke-width="4" stroke-linejoin="round"/>
</g>
<defs>
<clipPath id="clip0">
<rect width="232" height="232" fill="white"/>
</clipPath>
</defs>
</svg>
