<svg width="18" height="18" viewBox="0 0 18 18" fill="none" xmlns="http://www.w3.org/2000/svg">
<path d="M16.9533 3.47564C16.5827 2.22764 13.8246 1 9 1C4.17536 1 1.41696 2.22764 1.04672 3.47564C1.01984 3.5184 1 3.56524 1 3.61818V3.76364V7.10909V7.25455V7.4V10.6V10.7455V10.8909V14.3818C1 14.4289 1.01376 14.4735 1.03744 14.513C1.41536 15.937 4.79648 17 9 17C13.1939 17 16.5696 15.9414 16.96 14.5226C16.9856 14.481 17 14.433 17 14.3818V10.8909V10.7455V10.6V7.4V7.25455V7.10909V3.76364V3.61818C17 3.56524 16.9802 3.5184 16.9533 3.47564ZM16.3347 10.8865C16.3258 10.9217 16.3133 10.9567 16.2976 10.9921C16.2848 11.0209 16.2691 11.0497 16.2518 11.0785C16.2304 11.1143 16.2064 11.1501 16.1779 11.1859C16.1568 11.2129 16.1328 11.2397 16.1078 11.2665C16.0723 11.3046 16.0346 11.3427 15.9917 11.3805C15.9658 11.4035 15.9373 11.4262 15.9085 11.4492C15.856 11.4908 15.8013 11.5321 15.7402 11.5731C15.7139 11.5908 15.6858 11.608 15.6579 11.6255C15.5856 11.6708 15.5101 11.7159 15.4272 11.7601C15.4054 11.7721 15.3821 11.7834 15.3594 11.7951C15.264 11.8439 15.1645 11.8925 15.057 11.9396C15.0432 11.9457 15.0288 11.9516 15.0147 11.9574C14.8947 12.0089 14.7693 12.0595 14.6352 12.1084C14.6314 12.1098 14.6275 12.111 14.6237 12.1124C13.897 12.3763 12.9674 12.5983 11.8842 12.7437C11.8787 12.7443 11.8733 12.7449 11.8678 12.7457C11.6573 12.774 11.4413 12.799 11.2195 12.8211C11.1834 12.8246 11.1453 12.8269 11.1088 12.8304C10.9152 12.8487 10.7194 12.8656 10.5178 12.879C10.4256 12.8851 10.329 12.888 10.2352 12.8932C10.0835 12.9014 9.93344 12.9104 9.77792 12.9153C9.52384 12.9226 9.26464 12.9273 9 12.9273C8.73536 12.9273 8.47616 12.9226 8.22176 12.9145C8.06624 12.9095 7.91616 12.9002 7.76448 12.8924C7.67072 12.8874 7.57408 12.8842 7.48192 12.8781C7.28032 12.8647 7.08448 12.8479 6.89088 12.8295C6.8544 12.826 6.81632 12.8237 6.78016 12.8202C6.5584 12.7981 6.3424 12.7728 6.13184 12.7449C6.1264 12.7443 6.12096 12.7437 6.11552 12.7428C5.03232 12.5974 4.10272 12.3754 3.376 12.1116C3.37216 12.1104 3.36832 12.1089 3.36448 12.1075C3.2304 12.0586 3.10464 12.008 2.98496 11.9565C2.9712 11.9504 2.95648 11.9446 2.94272 11.9388C2.8352 11.8916 2.73568 11.8433 2.64032 11.7942C2.61792 11.7825 2.59424 11.7712 2.57248 11.7593C2.4896 11.7151 2.41408 11.67 2.34176 11.6246C2.31424 11.6071 2.28576 11.59 2.25952 11.5722C2.1984 11.5312 2.14368 11.4899 2.0912 11.4483C2.06272 11.4256 2.03392 11.4029 2.008 11.3796C1.96512 11.3418 1.92736 11.304 1.89184 11.2656C1.86688 11.2388 1.84288 11.2121 1.82176 11.185C1.7936 11.1492 1.7696 11.1135 1.74784 11.0777C1.73056 11.0489 1.7152 11.0201 1.70208 10.9913C1.6864 10.9561 1.67392 10.9209 1.66496 10.8857C1.65312 10.8394 1.64 10.7923 1.64 10.7455C1.64 10.7126 1.64416 10.6797 1.64992 10.6471C1.65792 10.6032 1.65344 10.5593 1.64 10.5177V8.35796C1.64896 8.36553 1.66016 8.3728 1.66944 8.38036C1.7392 8.43622 1.81024 8.49178 1.89024 8.54531C3.09568 9.37411 5.50624 10.0182 9 10.0182C12.479 10.0182 14.8835 9.37935 16.0941 8.55549C16.1907 8.49149 16.2778 8.42545 16.3597 8.35825L16.36 8.35796V10.5177C16.3466 10.5593 16.3421 10.6032 16.3501 10.6471C16.3562 10.6797 16.36 10.7126 16.36 10.7455C16.36 10.7923 16.3469 10.8394 16.3347 10.8865ZM16.36 4.86705V7.02676C16.3466 7.06836 16.3421 7.11229 16.3501 7.15622C16.3562 7.1888 16.36 7.22167 16.36 7.25455C16.36 7.30138 16.3469 7.34851 16.3347 7.39564C16.3258 7.43084 16.3133 7.46575 16.2976 7.50124C16.2848 7.53004 16.2691 7.55884 16.2518 7.58764C16.2304 7.62342 16.2064 7.6592 16.1779 7.69498C16.1568 7.72204 16.1328 7.7488 16.1078 7.77556C16.0723 7.81367 16.0346 7.85178 15.9917 7.8896C15.9658 7.91258 15.9373 7.93527 15.9085 7.95825C15.856 7.99985 15.8013 8.04116 15.7402 8.08218C15.7139 8.09993 15.6858 8.11709 15.6579 8.13455C15.5856 8.17993 15.5101 8.22502 15.4272 8.26924C15.4054 8.28116 15.3821 8.29251 15.3594 8.30415C15.264 8.35302 15.1645 8.4016 15.057 8.44873C15.0432 8.45484 15.0288 8.46065 15.0147 8.46647C14.8947 8.51796 14.7693 8.56858 14.6352 8.61745C14.6314 8.61891 14.6275 8.62007 14.6237 8.62153C13.897 8.88538 12.9674 9.10735 11.8842 9.2528C11.8787 9.25338 11.8733 9.25396 11.8678 9.25484C11.6573 9.28305 11.4413 9.30807 11.2195 9.33018C11.1834 9.33367 11.1453 9.336 11.1088 9.33949C10.9152 9.35782 10.7194 9.37469 10.5178 9.38807C10.4256 9.39418 10.329 9.39709 10.2352 9.40233C10.0835 9.41047 9.93344 9.41949 9.77792 9.42444C9.52384 9.43171 9.26464 9.43636 9 9.43636C8.73536 9.43636 8.47616 9.43171 8.22176 9.42356C8.06624 9.41862 7.91616 9.40931 7.76448 9.40145C7.67072 9.39651 7.57408 9.39331 7.48192 9.3872C7.28032 9.37382 7.08448 9.35695 6.89088 9.33862C6.8544 9.33513 6.81632 9.3328 6.78016 9.32931C6.5584 9.3072 6.3424 9.28189 6.13184 9.25396C6.1264 9.25338 6.12096 9.2528 6.11552 9.25193C5.03232 9.10647 4.10272 8.88451 3.376 8.62065C3.37216 8.61949 3.36832 8.61804 3.36448 8.61658C3.2304 8.56771 3.10464 8.51709 2.98496 8.4656C2.9712 8.45949 2.95648 8.45367 2.94272 8.44785C2.8352 8.40073 2.73568 8.35244 2.64032 8.30327C2.61792 8.29164 2.59424 8.28029 2.57248 8.26836C2.4896 8.22415 2.41408 8.17905 2.34176 8.13367C2.31424 8.11622 2.28576 8.09905 2.25952 8.08131C2.1984 8.04029 2.14368 7.99898 2.0912 7.95738C2.06272 7.93469 2.03392 7.912 2.008 7.88873C1.96512 7.85091 1.92736 7.81309 1.89184 7.77469C1.86688 7.74793 1.84288 7.72116 1.82176 7.69411C1.7936 7.65833 1.7696 7.62255 1.74784 7.58676C1.73056 7.55796 1.7152 7.52916 1.70208 7.50036C1.6864 7.46516 1.67392 7.42996 1.66496 7.39476C1.65312 7.34851 1.64 7.30138 1.64 7.25455C1.64 7.22167 1.64416 7.1888 1.64992 7.15622C1.65792 7.11229 1.65344 7.06836 1.64 7.02676V4.86705C1.6784 4.89876 1.72224 4.92989 1.76384 4.96131C1.78688 4.97876 1.80832 4.99622 1.83264 5.01367C1.92864 5.08233 2.03232 5.15011 2.14464 5.21615C2.168 5.22982 2.19424 5.2432 2.21856 5.25687C2.31264 5.31011 2.41216 5.36218 2.5168 5.41338C2.55552 5.43229 2.59424 5.45091 2.63424 5.46953C2.75104 5.52364 2.8736 5.57629 3.00256 5.6272C3.02368 5.63564 3.04288 5.64436 3.06432 5.65251C3.2144 5.7104 3.37376 5.76567 3.53952 5.8192C3.58528 5.83404 3.63328 5.848 3.68032 5.86255C3.81216 5.90298 3.94848 5.94167 4.0896 5.9792C4.14048 5.99258 4.1904 6.00655 4.24256 6.01935C4.42976 6.06647 4.62304 6.11127 4.82592 6.15258C4.85376 6.1584 4.88384 6.16305 4.912 6.16858C5.09088 6.20407 5.27648 6.23695 5.4672 6.26778C5.53184 6.27825 5.59744 6.28815 5.66336 6.29804C5.8448 6.32509 6.03168 6.34982 6.22336 6.37251C6.27264 6.37833 6.31968 6.38502 6.3696 6.39055C6.60768 6.41673 6.85408 6.43913 7.1072 6.45833C7.1696 6.46298 7.23456 6.46647 7.29792 6.47055C7.50048 6.48393 7.70752 6.49498 7.91936 6.50371C7.99648 6.50691 8.07328 6.51011 8.152 6.51273C8.42784 6.52116 8.7088 6.52727 9 6.52727C9.2912 6.52727 9.57216 6.52116 9.848 6.51273C9.9264 6.51011 10.0032 6.50691 10.0806 6.50371C10.2925 6.49498 10.4995 6.48393 10.7021 6.47055C10.7654 6.46618 10.8301 6.46298 10.8928 6.45833C11.1459 6.43942 11.3923 6.41673 11.6304 6.39055C11.6803 6.38502 11.7274 6.37833 11.7766 6.37251C11.9683 6.34982 12.1549 6.32509 12.3366 6.29804C12.4026 6.28815 12.4682 6.27825 12.5328 6.26778C12.7235 6.23695 12.9091 6.20407 13.088 6.16858C13.1162 6.16305 13.1462 6.15811 13.1741 6.15258C13.377 6.11127 13.5702 6.06618 13.7574 6.01935C13.8096 6.00625 13.8595 5.99258 13.9104 5.9792C14.0515 5.94167 14.1878 5.90298 14.3197 5.86255C14.3667 5.848 14.4147 5.83404 14.4605 5.8192C14.6262 5.76567 14.7859 5.7104 14.9357 5.65251C14.9571 5.64436 14.9763 5.63564 14.9974 5.6272C15.1264 5.576 15.249 5.52364 15.3658 5.46953C15.4058 5.45091 15.4448 5.43229 15.4832 5.41338C15.5878 5.36247 15.6874 5.3104 15.7814 5.25687C15.8058 5.2432 15.832 5.22982 15.8554 5.21615C15.9677 5.15011 16.0714 5.08262 16.1674 5.01367C16.1914 4.99622 16.2128 4.97876 16.2362 4.96131C16.2778 4.92989 16.3216 4.89876 16.36 4.86705ZM9 1.58182C13.3376 1.58182 16.36 2.73149 16.36 3.76364C16.36 4.79578 13.3376 5.94545 9 5.94545C4.6624 5.94545 1.64 4.79578 1.64 3.76364C1.64 2.73149 4.6624 1.58182 9 1.58182ZM16.36 14.2954C16.3555 14.3082 16.3523 14.3213 16.3498 14.3347C16.1683 15.3409 13.1715 16.4182 9 16.4182C4.82848 16.4182 1.83168 15.3409 1.65024 14.3347C1.64768 14.3216 1.64416 14.3088 1.64 14.2966V11.8489C1.64896 11.8564 1.66016 11.8637 1.66944 11.8713C1.7392 11.9271 1.81024 11.9827 1.89024 12.0362C3.09568 12.865 5.50624 13.5091 9 13.5091C12.479 13.5091 14.8835 12.8703 16.0941 12.0464C16.1907 11.9824 16.2778 11.9164 16.3597 11.8492L16.36 11.8489V14.2954V14.2954Z" fill="#43A047" stroke="#43A047" stroke-linejoin="round"/>
</svg>
