<svg width="571" height="96" viewBox="0 0 571 96" fill="none" xmlns="http://www.w3.org/2000/svg">
<path d="M65.7474 91.9789H11.2842C9.61753 91.9789 8.01912 91.3169 6.8406 90.1383C5.66208 88.9598 5 87.3614 5 85.6947V10.2842C5 8.61753 5.66208 7.01912 6.8406 5.8406C8.01912 4.66208 9.61753 4 11.2842 4H51.0842L72.0316 24.9474V85.6947C72.0316 87.3614 71.3695 88.9598 70.191 90.1383C69.0125 91.3169 67.414 91.9789 65.7474 91.9789Z" fill="#43A047"/>
<path d="M72.0316 24.9474H51.0842V4L72.0316 24.9474Z" fill="#C8E6C9"/>
<path d="M51.0842 24.9474L72.0316 45.8948V24.9474H51.0842Z" fill="#2E7D32"/>
<path d="M56.2637 42.0979C55.4328 39.0239 49.2489 36 38.4316 36C27.6142 36 21.4296 39.0239 20.5995 42.0979C20.5392 42.2032 20.4947 42.3186 20.4947 42.449V42.8073V51.0477V51.4059V51.7642V59.6463V60.0046V60.3629V68.9615C20.4947 69.0776 20.5256 69.1872 20.5787 69.2847C21.426 72.7922 29.0068 75.4105 38.4316 75.4105C47.8348 75.4105 55.4034 72.803 56.2787 69.3083C56.3361 69.2059 56.3684 69.0876 56.3684 68.9615V60.3629V60.0046V59.6463V51.7642V51.4059V51.0477V42.8073V42.449C56.3684 42.3186 56.3239 42.2032 56.2637 42.0979ZM54.8768 60.3521C54.8567 60.4388 54.8287 60.5248 54.7936 60.6122C54.7649 60.6832 54.7297 60.7541 54.691 60.825C54.6429 60.9132 54.5891 61.0013 54.5252 61.0895C54.4779 61.1561 54.4241 61.222 54.3681 61.2879C54.2885 61.3818 54.2038 61.4757 54.1076 61.5688C54.0495 61.6254 53.9857 61.6813 53.9211 61.7379C53.8034 61.8404 53.6808 61.9422 53.5437 62.0432C53.4849 62.0869 53.4217 62.1292 53.3593 62.1722C53.1972 62.284 53.0279 62.395 52.842 62.5039C52.7932 62.5333 52.7409 62.5613 52.6899 62.5899C52.4761 62.7103 52.253 62.83 52.0119 62.9461C51.9811 62.9611 51.9488 62.9754 51.9172 62.9898C51.6482 63.1166 51.3669 63.2413 51.0663 63.3617C51.0577 63.3652 51.0491 63.3681 51.0405 63.3717C49.4111 64.0216 47.3268 64.5683 44.8982 64.9266C44.886 64.928 44.8738 64.9295 44.8616 64.9316C44.3895 65.0011 43.9052 65.0628 43.408 65.1172C43.3269 65.1258 43.2415 65.1315 43.1597 65.1401C42.7257 65.1853 42.2866 65.2268 41.8345 65.2598C41.6279 65.2749 41.4112 65.282 41.201 65.2949C40.8609 65.315 40.5244 65.3372 40.1757 65.3494C39.6061 65.3673 39.0249 65.3788 38.4316 65.3788C37.8382 65.3788 37.2571 65.3673 36.6867 65.3472C36.338 65.335 36.0015 65.3121 35.6614 65.2928C35.4512 65.2806 35.2345 65.2727 35.0279 65.2577C34.5759 65.2247 34.1368 65.1831 33.7027 65.138C33.6209 65.1294 33.5355 65.1237 33.4545 65.1151C32.9572 65.0606 32.473 64.9983 32.0009 64.9295C31.9887 64.928 31.9765 64.9266 31.9643 64.9245C29.5356 64.5662 27.4514 64.0194 25.822 63.3695C25.8134 63.3667 25.8048 63.3631 25.7961 63.3595C25.4955 63.2391 25.2136 63.1144 24.9452 62.9876C24.9144 62.9726 24.8814 62.9582 24.8505 62.9439C24.6094 62.8278 24.3863 62.7089 24.1725 62.5878C24.1223 62.5591 24.0692 62.5312 24.0204 62.5018C23.8346 62.3929 23.6653 62.2818 23.5031 62.17C23.4414 62.127 23.3775 62.0848 23.3187 62.041C23.1817 61.94 23.059 61.8383 22.9413 61.7358C22.8775 61.6799 22.8129 61.624 22.7548 61.5667C22.6586 61.4735 22.574 61.3804 22.4943 61.2858C22.4384 61.2199 22.3846 61.1539 22.3372 61.0873C22.2741 60.9992 22.2203 60.911 22.1715 60.8229C22.1327 60.752 22.0983 60.681 22.0689 60.6101C22.0337 60.5234 22.0057 60.4367 21.9856 60.35C21.9591 60.236 21.9297 60.12 21.9297 60.0046C21.9297 59.9236 21.939 59.8426 21.9519 59.7624C21.9699 59.6542 21.9598 59.546 21.9297 59.4435V54.1238C21.9498 54.1425 21.9749 54.1604 21.9957 54.179C22.1521 54.3166 22.3114 54.4534 22.4907 54.5853C25.1935 56.6268 30.5982 58.2132 38.4316 58.2132C46.2319 58.2132 51.623 56.6397 54.3372 54.6104C54.5539 54.4527 54.7491 54.2901 54.9327 54.1245L54.9335 54.1238V59.4435C54.9033 59.546 54.8933 59.6542 54.9112 59.7624C54.9249 59.8426 54.9335 59.9236 54.9335 60.0046C54.9335 60.12 54.904 60.236 54.8768 60.3521ZM54.9335 45.5252V50.8449C54.9033 50.9473 54.8933 51.0555 54.9112 51.1637C54.9249 51.244 54.9335 51.325 54.9335 51.4059C54.9335 51.5213 54.904 51.6374 54.8768 51.7535C54.8567 51.8402 54.8287 51.9262 54.7936 52.0136C54.7649 52.0845 54.7297 52.1554 54.691 52.2264C54.6429 52.3145 54.5891 52.4027 54.5252 52.4908C54.4779 52.5574 54.4241 52.6234 54.3681 52.6893C54.2885 52.7832 54.2038 52.877 54.1076 52.9702C54.0495 53.0268 53.9857 53.0827 53.9211 53.1393C53.8034 53.2417 53.6808 53.3435 53.5437 53.4445C53.4849 53.4882 53.4217 53.5305 53.3593 53.5735C53.1972 53.6853 53.0279 53.7964 52.842 53.9053C52.7932 53.9347 52.7409 53.9626 52.6899 53.9913C52.4761 54.1116 52.253 54.2313 52.0119 54.3474C51.9811 54.3624 51.9488 54.3768 51.9172 54.3911C51.6482 54.5179 51.3669 54.6426 51.0663 54.763C51.0577 54.7666 51.0491 54.7694 51.0405 54.773C49.4111 55.4229 47.3268 55.9697 44.8982 56.3279C44.886 56.3294 44.8738 56.3308 44.8616 56.333C44.3895 56.4025 43.9052 56.4641 43.408 56.5186C43.3269 56.5272 43.2415 56.5329 43.1597 56.5415C42.7257 56.5866 42.2866 56.6282 41.8345 56.6611C41.6279 56.6762 41.4112 56.6834 41.201 56.6963C40.8609 56.7163 40.5244 56.7385 40.1757 56.7507C39.6061 56.7686 39.0249 56.7801 38.4316 56.7801C37.8382 56.7801 37.2571 56.7686 36.6867 56.7486C36.338 56.7364 36.0015 56.7135 35.6614 56.6941C35.4512 56.6819 35.2345 56.674 35.0279 56.659C34.5759 56.626 34.1368 56.5845 33.7027 56.5393C33.6209 56.5307 33.5355 56.525 33.4545 56.5164C32.9572 56.4619 32.473 56.3996 32.0009 56.3308C31.9887 56.3294 31.9765 56.3279 31.9643 56.3258C29.5356 55.9675 27.4514 55.4208 25.822 54.7709C25.8134 54.768 25.8048 54.7644 25.7961 54.7608C25.4955 54.6405 25.2136 54.5158 24.9452 54.389C24.9144 54.3739 24.8814 54.3596 24.8505 54.3452C24.6094 54.2292 24.3863 54.1102 24.1725 53.9891C24.1223 53.9605 24.0692 53.9325 24.0204 53.9031C23.8346 53.7942 23.6653 53.6831 23.5031 53.5714C23.4414 53.5284 23.3775 53.4861 23.3187 53.4424C23.1817 53.3413 23.059 53.2396 22.9413 53.1371C22.8775 53.0812 22.8129 53.0253 22.7548 52.968C22.6586 52.8749 22.574 52.7817 22.4943 52.6871C22.4384 52.6212 22.3846 52.5553 22.3372 52.4886C22.2741 52.4005 22.2203 52.3124 22.1715 52.2242C22.1327 52.1533 22.0983 52.0824 22.0689 52.0114C22.0337 51.9247 22.0057 51.838 21.9856 51.7513C21.9591 51.6374 21.9297 51.5213 21.9297 51.4059C21.9297 51.325 21.939 51.244 21.9519 51.1637C21.9699 51.0555 21.9598 50.9473 21.9297 50.8449V45.5252C22.0158 45.6033 22.1141 45.6799 22.2073 45.7573C22.259 45.8003 22.3071 45.8433 22.3616 45.8863C22.5768 46.0554 22.8093 46.2224 23.0611 46.385C23.1135 46.4187 23.1723 46.4517 23.2269 46.4853C23.4378 46.6165 23.6609 46.7447 23.8956 46.8709C23.9824 46.9174 24.0692 46.9633 24.1589 47.0092C24.4208 47.1424 24.6955 47.2721 24.9847 47.3975C25.032 47.4183 25.0751 47.4398 25.1232 47.4599C25.4597 47.6025 25.817 47.7386 26.1886 47.8705C26.2912 47.907 26.3988 47.9414 26.5043 47.9772C26.7999 48.0768 27.1055 48.1721 27.4219 48.2646C27.536 48.2975 27.6479 48.3319 27.7649 48.3634C28.1846 48.4795 28.618 48.5899 29.0728 48.6916C29.1353 48.706 29.2027 48.7174 29.2658 48.731C29.6669 48.8185 30.083 48.8994 30.5107 48.9754C30.6556 49.0012 30.8027 49.0255 30.9505 49.0499C31.3573 49.1165 31.7763 49.1774 32.2061 49.2333C32.3165 49.2477 32.422 49.2641 32.5339 49.2778C33.0677 49.3423 33.6202 49.3974 34.1877 49.4447C34.3276 49.4562 34.4733 49.4648 34.6153 49.4748C35.0695 49.5078 35.5337 49.535 36.0087 49.5565C36.1816 49.5644 36.3538 49.5723 36.5303 49.5787C37.1487 49.5995 37.7787 49.6145 38.4316 49.6145C39.0845 49.6145 39.7144 49.5995 40.3329 49.5787C40.5087 49.5723 40.6809 49.5644 40.8545 49.5565C41.3294 49.535 41.7937 49.5078 42.2478 49.4748C42.3899 49.4641 42.5348 49.4562 42.6754 49.4447C43.243 49.3981 43.7954 49.3423 44.3292 49.2778C44.4411 49.2641 44.5466 49.2477 44.6571 49.2333C45.0869 49.1774 45.5051 49.1165 45.9127 49.0499C46.0605 49.0255 46.2076 49.0012 46.3525 48.9754C46.7801 48.8994 47.1962 48.8185 47.5973 48.731C47.6604 48.7174 47.7279 48.7052 47.7903 48.6916C48.2452 48.5899 48.6785 48.4788 49.0982 48.3634C49.2152 48.3312 49.3271 48.2975 49.4412 48.2646C49.7576 48.1721 50.0633 48.0768 50.3589 47.9772C50.4643 47.9414 50.5719 47.907 50.6745 47.8705C51.0462 47.7386 51.4042 47.6025 51.74 47.4599C51.7881 47.4398 51.8311 47.4183 51.8785 47.3975C52.1676 47.2714 52.4424 47.1424 52.7043 47.0092C52.794 46.9633 52.8815 46.9174 52.9676 46.8709C53.2022 46.7455 53.4253 46.6172 53.6363 46.4853C53.6908 46.4517 53.7496 46.4187 53.802 46.385C54.0538 46.2224 54.2863 46.0561 54.5015 45.8863C54.5554 45.8433 54.6034 45.8003 54.6558 45.7573C54.7491 45.6799 54.8474 45.6033 54.9335 45.5252ZM38.4316 37.4331C48.1569 37.4331 54.9335 40.2649 54.9335 42.8073C54.9335 45.3496 48.1569 48.1814 38.4316 48.1814C28.7062 48.1814 21.9297 45.3496 21.9297 42.8073C21.9297 40.2649 28.7062 37.4331 38.4316 37.4331ZM54.9335 68.7487C54.9234 68.7802 54.9162 68.8125 54.9105 68.8454C54.5037 71.324 47.7846 73.9774 38.4316 73.9774C29.0786 73.9774 22.3594 71.324 21.9526 68.8454C21.9469 68.8132 21.939 68.7817 21.9297 68.7516V62.7225C21.9498 62.7411 21.9749 62.759 21.9957 62.7777C22.1521 62.9152 22.3114 63.0521 22.4907 63.1839C25.1935 65.2254 30.5982 66.8119 38.4316 66.8119C46.2319 66.8119 51.623 65.2383 54.3372 63.209C54.5539 63.0514 54.7491 62.8887 54.9327 62.7232L54.9335 62.7225V68.7487Z" fill="#E8F5E9" stroke="#E8F5E9" stroke-width="2" stroke-linejoin="round"/>
<path d="M110.844 62.8125C110.844 61.4583 110.281 60.4271 109.156 59.7188C108.052 59.0104 106.208 58.3854 103.625 57.8438C101.042 57.3021 98.8854 56.6146 97.1562 55.7812C93.3646 53.9479 91.4688 51.2917 91.4688 47.8125C91.4688 44.8958 92.6979 42.4583 95.1562 40.5C97.6146 38.5417 100.74 37.5625 104.531 37.5625C108.573 37.5625 111.833 38.5625 114.312 40.5625C116.812 42.5625 118.062 45.1562 118.062 48.3438H110.469C110.469 46.8854 109.927 45.6771 108.844 44.7188C107.76 43.7396 106.323 43.25 104.531 43.25C102.865 43.25 101.5 43.6354 100.438 44.4062C99.3958 45.1771 98.875 46.2083 98.875 47.5C98.875 48.6667 99.3646 49.5729 100.344 50.2188C101.323 50.8646 103.302 51.5208 106.281 52.1875C109.26 52.8333 111.594 53.6146 113.281 54.5312C114.99 55.4271 116.25 56.5104 117.062 57.7812C117.896 59.0521 118.312 60.5938 118.312 62.4062C118.312 65.4479 117.052 67.9167 114.531 69.8125C112.01 71.6875 108.708 72.625 104.625 72.625C101.854 72.625 99.3854 72.125 97.2188 71.125C95.0521 70.125 93.3646 68.75 92.1562 67C90.9479 65.25 90.3438 63.3646 90.3438 61.3438H97.7188C97.8229 63.1354 98.5 64.5208 99.75 65.5C101 66.4583 102.656 66.9375 104.719 66.9375C106.719 66.9375 108.24 66.5625 109.281 65.8125C110.323 65.0417 110.844 64.0417 110.844 62.8125ZM132.438 41.875C134.917 39 138.052 37.5625 141.844 37.5625C149.052 37.5625 152.708 41.6771 152.812 49.9062V72H145.219V50.1875C145.219 47.8542 144.708 46.2083 143.688 45.25C142.688 44.2708 141.208 43.7812 139.25 43.7812C136.208 43.7812 133.938 45.1354 132.438 47.8438V72H124.844V24H132.438V41.875ZM175.406 72.625C170.594 72.625 166.688 71.1146 163.688 68.0938C160.708 65.0521 159.219 61.0104 159.219 55.9688V55.0312C159.219 51.6562 159.865 48.6458 161.156 46C162.469 43.3333 164.302 41.2604 166.656 39.7812C169.01 38.3021 171.635 37.5625 174.531 37.5625C179.135 37.5625 182.688 39.0312 185.188 41.9688C187.708 44.9062 188.969 49.0625 188.969 54.4375V57.5H166.875C167.104 60.2917 168.031 62.5 169.656 64.125C171.302 65.75 173.365 66.5625 175.844 66.5625C179.323 66.5625 182.156 65.1562 184.344 62.3438L188.438 66.25C187.083 68.2708 185.271 69.8438 183 70.9688C180.75 72.0729 178.219 72.625 175.406 72.625ZM174.5 43.6562C172.417 43.6562 170.729 44.3854 169.438 45.8438C168.167 47.3021 167.354 49.3333 167 51.9375H181.469V51.375C181.302 48.8333 180.625 46.9167 179.438 45.625C178.25 44.3125 176.604 43.6562 174.5 43.6562ZM209.781 72.625C204.969 72.625 201.062 71.1146 198.062 68.0938C195.083 65.0521 193.594 61.0104 193.594 55.9688V55.0312C193.594 51.6562 194.24 48.6458 195.531 46C196.844 43.3333 198.677 41.2604 201.031 39.7812C203.385 38.3021 206.01 37.5625 208.906 37.5625C213.51 37.5625 217.062 39.0312 219.562 41.9688C222.083 44.9062 223.344 49.0625 223.344 54.4375V57.5H201.25C201.479 60.2917 202.406 62.5 204.031 64.125C205.677 65.75 207.74 66.5625 210.219 66.5625C213.698 66.5625 216.531 65.1562 218.719 62.3438L222.812 66.25C221.458 68.2708 219.646 69.8438 217.375 70.9688C215.125 72.0729 212.594 72.625 209.781 72.625ZM208.875 43.6562C206.792 43.6562 205.104 44.3854 203.812 45.8438C202.542 47.3021 201.729 49.3333 201.375 51.9375H215.844V51.375C215.677 48.8333 215 46.9167 213.812 45.625C212.625 44.3125 210.979 43.6562 208.875 43.6562ZM238.781 29.9688V38.1875H244.75V43.8125H238.781V62.6875C238.781 63.9792 239.031 64.9167 239.531 65.5C240.052 66.0625 240.969 66.3438 242.281 66.3438C243.156 66.3438 244.042 66.2396 244.938 66.0312V71.9062C243.208 72.3854 241.542 72.625 239.938 72.625C234.104 72.625 231.188 69.4062 231.188 62.9688V43.8125H225.625V38.1875H231.188V29.9688H238.781ZM269.531 62.8125C269.531 61.4583 268.969 60.4271 267.844 59.7188C266.74 59.0104 264.896 58.3854 262.312 57.8438C259.729 57.3021 257.573 56.6146 255.844 55.7812C252.052 53.9479 250.156 51.2917 250.156 47.8125C250.156 44.8958 251.385 42.4583 253.844 40.5C256.302 38.5417 259.427 37.5625 263.219 37.5625C267.26 37.5625 270.521 38.5625 273 40.5625C275.5 42.5625 276.75 45.1562 276.75 48.3438H269.156C269.156 46.8854 268.615 45.6771 267.531 44.7188C266.448 43.7396 265.01 43.25 263.219 43.25C261.552 43.25 260.188 43.6354 259.125 44.4062C258.083 45.1771 257.562 46.2083 257.562 47.5C257.562 48.6667 258.052 49.5729 259.031 50.2188C260.01 50.8646 261.99 51.5208 264.969 52.1875C267.948 52.8333 270.281 53.6146 271.969 54.5312C273.677 55.4271 274.938 56.5104 275.75 57.7812C276.583 59.0521 277 60.5938 277 62.4062C277 65.4479 275.74 67.9167 273.219 69.8125C270.698 71.6875 267.396 72.625 263.312 72.625C260.542 72.625 258.073 72.125 255.906 71.125C253.74 70.125 252.052 68.75 250.844 67C249.635 65.25 249.031 63.3646 249.031 61.3438H256.406C256.51 63.1354 257.188 64.5208 258.438 65.5C259.688 66.4583 261.344 66.9375 263.406 66.9375C265.406 66.9375 266.927 66.5625 267.969 65.8125C269.01 65.0417 269.531 64.0417 269.531 62.8125Z" fill="#66BB6A"/>
<path d="M298.375 55.7188H281.969V49.5938H298.375V55.7188ZM303.219 54.8438C303.219 49.6354 304.427 45.4583 306.844 42.3125C309.26 39.1458 312.5 37.5625 316.562 37.5625C320.146 37.5625 323.042 38.8125 325.25 41.3125V24H332.844V72H325.969L325.594 68.5C323.323 71.25 320.292 72.625 316.5 72.625C312.542 72.625 309.333 71.0312 306.875 67.8438C304.438 64.6562 303.219 60.3229 303.219 54.8438ZM310.812 55.5C310.812 58.9375 311.469 61.625 312.781 63.5625C314.115 65.4792 316 66.4375 318.438 66.4375C321.542 66.4375 323.812 65.0521 325.25 62.2812V47.8438C323.854 45.1354 321.604 43.7812 318.5 43.7812C316.042 43.7812 314.146 44.7604 312.812 46.7188C311.479 48.6562 310.812 51.5833 310.812 55.5ZM360.969 72C360.635 71.3542 360.344 70.3021 360.094 68.8438C357.677 71.3646 354.719 72.625 351.219 72.625C347.823 72.625 345.052 71.6562 342.906 69.7188C340.76 67.7812 339.688 65.3854 339.688 62.5312C339.688 58.9271 341.021 56.1667 343.688 54.25C346.375 52.3125 350.208 51.3438 355.188 51.3438H359.844V49.125C359.844 47.375 359.354 45.9792 358.375 44.9375C357.396 43.875 355.906 43.3438 353.906 43.3438C352.177 43.3438 350.76 43.7812 349.656 44.6562C348.552 45.5104 348 46.6042 348 47.9375H340.406C340.406 46.0833 341.021 44.3542 342.25 42.75C343.479 41.125 345.146 39.8542 347.25 38.9375C349.375 38.0208 351.74 37.5625 354.344 37.5625C358.302 37.5625 361.458 38.5625 363.812 40.5625C366.167 42.5417 367.375 45.3333 367.438 48.9375V64.1875C367.438 67.2292 367.865 69.6562 368.719 71.4688V72H360.969ZM352.625 66.5312C354.125 66.5312 355.531 66.1667 356.844 65.4375C358.177 64.7083 359.177 63.7292 359.844 62.5V56.125H355.75C352.938 56.125 350.823 56.6146 349.406 57.5938C347.99 58.5729 347.281 59.9583 347.281 61.75C347.281 63.2083 347.76 64.375 348.719 65.25C349.698 66.1042 351 66.5312 352.625 66.5312ZM384.906 29.9688V38.1875H390.875V43.8125H384.906V62.6875C384.906 63.9792 385.156 64.9167 385.656 65.5C386.177 66.0625 387.094 66.3438 388.406 66.3438C389.281 66.3438 390.167 66.2396 391.062 66.0312V71.9062C389.333 72.3854 387.667 72.625 386.062 72.625C380.229 72.625 377.312 69.4062 377.312 62.9688V43.8125H371.75V38.1875H377.312V29.9688H384.906ZM416.906 72C416.573 71.3542 416.281 70.3021 416.031 68.8438C413.615 71.3646 410.656 72.625 407.156 72.625C403.76 72.625 400.99 71.6562 398.844 69.7188C396.698 67.7812 395.625 65.3854 395.625 62.5312C395.625 58.9271 396.958 56.1667 399.625 54.25C402.312 52.3125 406.146 51.3438 411.125 51.3438H415.781V49.125C415.781 47.375 415.292 45.9792 414.312 44.9375C413.333 43.875 411.844 43.3438 409.844 43.3438C408.115 43.3438 406.698 43.7812 405.594 44.6562C404.49 45.5104 403.938 46.6042 403.938 47.9375H396.344C396.344 46.0833 396.958 44.3542 398.188 42.75C399.417 41.125 401.083 39.8542 403.188 38.9375C405.312 38.0208 407.677 37.5625 410.281 37.5625C414.24 37.5625 417.396 38.5625 419.75 40.5625C422.104 42.5417 423.312 45.3333 423.375 48.9375V64.1875C423.375 67.2292 423.802 69.6562 424.656 71.4688V72H416.906ZM408.562 66.5312C410.062 66.5312 411.469 66.1667 412.781 65.4375C414.115 64.7083 415.115 63.7292 415.781 62.5V56.125H411.688C408.875 56.125 406.76 56.6146 405.344 57.5938C403.927 58.5729 403.219 59.9583 403.219 61.75C403.219 63.2083 403.698 64.375 404.656 65.25C405.635 66.1042 406.938 66.5312 408.562 66.5312ZM461 55.4375C461 60.6875 459.823 64.8646 457.469 67.9688C455.135 71.0729 451.917 72.625 447.812 72.625C443.854 72.625 440.771 71.1979 438.562 68.3438L438.188 72H431.312V24H438.906V41.4375C441.094 38.8542 444.042 37.5625 447.75 37.5625C451.875 37.5625 455.115 39.0938 457.469 42.1562C459.823 45.2188 461 49.5 461 55V55.4375ZM453.406 54.7812C453.406 51.1146 452.76 48.3646 451.469 46.5312C450.177 44.6979 448.302 43.7812 445.844 43.7812C442.552 43.7812 440.24 45.2188 438.906 48.0938V62.0312C440.26 64.9688 442.594 66.4375 445.906 66.4375C448.281 66.4375 450.115 65.5521 451.406 63.7812C452.698 62.0104 453.365 59.3333 453.406 55.75V54.7812ZM487.594 72C487.26 71.3542 486.969 70.3021 486.719 68.8438C484.302 71.3646 481.344 72.625 477.844 72.625C474.448 72.625 471.677 71.6562 469.531 69.7188C467.385 67.7812 466.312 65.3854 466.312 62.5312C466.312 58.9271 467.646 56.1667 470.312 54.25C473 52.3125 476.833 51.3438 481.812 51.3438H486.469V49.125C486.469 47.375 485.979 45.9792 485 44.9375C484.021 43.875 482.531 43.3438 480.531 43.3438C478.802 43.3438 477.385 43.7812 476.281 44.6562C475.177 45.5104 474.625 46.6042 474.625 47.9375H467.031C467.031 46.0833 467.646 44.3542 468.875 42.75C470.104 41.125 471.771 39.8542 473.875 38.9375C476 38.0208 478.365 37.5625 480.969 37.5625C484.927 37.5625 488.083 38.5625 490.438 40.5625C492.792 42.5417 494 45.3333 494.062 48.9375V64.1875C494.062 67.2292 494.49 69.6562 495.344 71.4688V72H487.594ZM479.25 66.5312C480.75 66.5312 482.156 66.1667 483.469 65.4375C484.802 64.7083 485.802 63.7292 486.469 62.5V56.125H482.375C479.562 56.125 477.448 56.6146 476.031 57.5938C474.615 58.5729 473.906 59.9583 473.906 61.75C473.906 63.2083 474.385 64.375 475.344 65.25C476.323 66.1042 477.625 66.5312 479.25 66.5312ZM520.969 62.8125C520.969 61.4583 520.406 60.4271 519.281 59.7188C518.177 59.0104 516.333 58.3854 513.75 57.8438C511.167 57.3021 509.01 56.6146 507.281 55.7812C503.49 53.9479 501.594 51.2917 501.594 47.8125C501.594 44.8958 502.823 42.4583 505.281 40.5C507.74 38.5417 510.865 37.5625 514.656 37.5625C518.698 37.5625 521.958 38.5625 524.438 40.5625C526.938 42.5625 528.188 45.1562 528.188 48.3438H520.594C520.594 46.8854 520.052 45.6771 518.969 44.7188C517.885 43.7396 516.448 43.25 514.656 43.25C512.99 43.25 511.625 43.6354 510.562 44.4062C509.521 45.1771 509 46.2083 509 47.5C509 48.6667 509.49 49.5729 510.469 50.2188C511.448 50.8646 513.427 51.5208 516.406 52.1875C519.385 52.8333 521.719 53.6146 523.406 54.5312C525.115 55.4271 526.375 56.5104 527.188 57.7812C528.021 59.0521 528.438 60.5938 528.438 62.4062C528.438 65.4479 527.177 67.9167 524.656 69.8125C522.135 71.6875 518.833 72.625 514.75 72.625C511.979 72.625 509.51 72.125 507.344 71.125C505.177 70.125 503.49 68.75 502.281 67C501.073 65.25 500.469 63.3646 500.469 61.3438H507.844C507.948 63.1354 508.625 64.5208 509.875 65.5C511.125 66.4583 512.781 66.9375 514.844 66.9375C516.844 66.9375 518.365 66.5625 519.406 65.8125C520.448 65.0417 520.969 64.0417 520.969 62.8125ZM549.969 72.625C545.156 72.625 541.25 71.1146 538.25 68.0938C535.271 65.0521 533.781 61.0104 533.781 55.9688V55.0312C533.781 51.6562 534.427 48.6458 535.719 46C537.031 43.3333 538.865 41.2604 541.219 39.7812C543.573 38.3021 546.198 37.5625 549.094 37.5625C553.698 37.5625 557.25 39.0312 559.75 41.9688C562.271 44.9062 563.531 49.0625 563.531 54.4375V57.5H541.438C541.667 60.2917 542.594 62.5 544.219 64.125C545.865 65.75 547.927 66.5625 550.406 66.5625C553.885 66.5625 556.719 65.1562 558.906 62.3438L563 66.25C561.646 68.2708 559.833 69.8438 557.562 70.9688C555.312 72.0729 552.781 72.625 549.969 72.625ZM549.062 43.6562C546.979 43.6562 545.292 44.3854 544 45.8438C542.729 47.3021 541.917 49.3333 541.562 51.9375H556.031V51.375C555.865 48.8333 555.188 46.9167 554 45.625C552.812 44.3125 551.167 43.6562 549.062 43.6562Z" fill="#828282"/>
</svg>
