<svg width="591" height="96" viewBox="0 0 591 96" fill="none" xmlns="http://www.w3.org/2000/svg">
<path d="M65.7474 91.9789H11.2842C9.61753 91.9789 8.01912 91.3169 6.8406 90.1383C5.66208 88.9598 5 87.3614 5 85.6947V10.2842C5 8.61753 5.66208 7.01912 6.8406 5.8406C8.01912 4.66208 9.61753 4 11.2842 4H51.0842L72.0316 24.9474V85.6947C72.0316 87.3614 71.3695 88.9598 70.191 90.1383C69.0125 91.3169 67.414 91.9789 65.7474 91.9789Z" fill="#43A047"/>
<path d="M72.0316 24.9474H51.0842V4L72.0316 24.9474Z" fill="#C8E6C9"/>
<path d="M51.0842 24.9474L72.0316 45.8948V24.9474H51.0842Z" fill="#2E7D32"/>
<path d="M56.2637 42.0979C55.4328 39.0239 49.2489 36 38.4316 36C27.6142 36 21.4296 39.0239 20.5995 42.0979C20.5392 42.2032 20.4947 42.3186 20.4947 42.449V42.8073V51.0477V51.4059V51.7642V59.6463V60.0046V60.3629V68.9615C20.4947 69.0776 20.5256 69.1872 20.5787 69.2847C21.426 72.7922 29.0068 75.4105 38.4316 75.4105C47.8348 75.4105 55.4034 72.803 56.2787 69.3083C56.3361 69.2059 56.3684 69.0876 56.3684 68.9615V60.3629V60.0046V59.6463V51.7642V51.4059V51.0477V42.8073V42.449C56.3684 42.3186 56.3239 42.2032 56.2637 42.0979ZM54.8768 60.3521C54.8567 60.4388 54.8287 60.5248 54.7936 60.6122C54.7649 60.6832 54.7297 60.7541 54.691 60.825C54.6429 60.9132 54.5891 61.0013 54.5252 61.0895C54.4779 61.1561 54.4241 61.222 54.3681 61.2879C54.2885 61.3818 54.2038 61.4757 54.1076 61.5688C54.0495 61.6254 53.9857 61.6813 53.9211 61.7379C53.8034 61.8404 53.6808 61.9422 53.5437 62.0432C53.4849 62.0869 53.4217 62.1292 53.3593 62.1722C53.1972 62.284 53.0279 62.395 52.842 62.5039C52.7932 62.5333 52.7409 62.5613 52.6899 62.5899C52.4761 62.7103 52.253 62.83 52.0119 62.9461C51.9811 62.9611 51.9488 62.9754 51.9172 62.9898C51.6482 63.1166 51.3669 63.2413 51.0663 63.3617C51.0577 63.3652 51.0491 63.3681 51.0405 63.3717C49.4111 64.0216 47.3268 64.5683 44.8982 64.9266C44.886 64.928 44.8738 64.9295 44.8616 64.9316C44.3895 65.0011 43.9052 65.0628 43.408 65.1172C43.3269 65.1258 43.2415 65.1315 43.1597 65.1401C42.7257 65.1853 42.2866 65.2268 41.8345 65.2598C41.6279 65.2749 41.4112 65.282 41.201 65.2949C40.8609 65.315 40.5244 65.3372 40.1757 65.3494C39.6061 65.3673 39.0249 65.3788 38.4316 65.3788C37.8382 65.3788 37.2571 65.3673 36.6867 65.3472C36.338 65.335 36.0015 65.3121 35.6614 65.2928C35.4512 65.2806 35.2345 65.2727 35.0279 65.2577C34.5759 65.2247 34.1368 65.1831 33.7027 65.138C33.6209 65.1294 33.5355 65.1237 33.4545 65.1151C32.9572 65.0606 32.473 64.9983 32.0009 64.9295C31.9887 64.928 31.9765 64.9266 31.9643 64.9245C29.5356 64.5662 27.4514 64.0194 25.822 63.3695C25.8134 63.3667 25.8048 63.3631 25.7961 63.3595C25.4955 63.2391 25.2136 63.1144 24.9452 62.9876C24.9144 62.9726 24.8814 62.9582 24.8505 62.9439C24.6094 62.8278 24.3863 62.7089 24.1725 62.5878C24.1223 62.5591 24.0692 62.5312 24.0204 62.5018C23.8346 62.3929 23.6653 62.2818 23.5031 62.17C23.4414 62.127 23.3775 62.0848 23.3187 62.041C23.1817 61.94 23.059 61.8383 22.9413 61.7358C22.8775 61.6799 22.8129 61.624 22.7548 61.5667C22.6586 61.4735 22.574 61.3804 22.4943 61.2858C22.4384 61.2199 22.3846 61.1539 22.3372 61.0873C22.2741 60.9992 22.2203 60.911 22.1715 60.8229C22.1327 60.752 22.0983 60.681 22.0689 60.6101C22.0337 60.5234 22.0057 60.4367 21.9856 60.35C21.9591 60.236 21.9297 60.12 21.9297 60.0046C21.9297 59.9236 21.939 59.8426 21.9519 59.7624C21.9699 59.6542 21.9598 59.546 21.9297 59.4435V54.1238C21.9498 54.1425 21.9749 54.1604 21.9957 54.179C22.1521 54.3166 22.3114 54.4534 22.4907 54.5853C25.1935 56.6268 30.5982 58.2132 38.4316 58.2132C46.2319 58.2132 51.623 56.6397 54.3372 54.6104C54.5539 54.4527 54.7491 54.2901 54.9327 54.1245L54.9335 54.1238V59.4435C54.9033 59.546 54.8933 59.6542 54.9112 59.7624C54.9249 59.8426 54.9335 59.9236 54.9335 60.0046C54.9335 60.12 54.904 60.236 54.8768 60.3521ZM54.9335 45.5252V50.8449C54.9033 50.9473 54.8933 51.0555 54.9112 51.1637C54.9249 51.244 54.9335 51.325 54.9335 51.4059C54.9335 51.5213 54.904 51.6374 54.8768 51.7535C54.8567 51.8402 54.8287 51.9262 54.7936 52.0136C54.7649 52.0845 54.7297 52.1554 54.691 52.2264C54.6429 52.3145 54.5891 52.4027 54.5252 52.4908C54.4779 52.5574 54.4241 52.6234 54.3681 52.6893C54.2885 52.7832 54.2038 52.877 54.1076 52.9702C54.0495 53.0268 53.9857 53.0827 53.9211 53.1393C53.8034 53.2417 53.6808 53.3435 53.5437 53.4445C53.4849 53.4882 53.4217 53.5305 53.3593 53.5735C53.1972 53.6853 53.0279 53.7964 52.842 53.9053C52.7932 53.9347 52.7409 53.9626 52.6899 53.9913C52.4761 54.1116 52.253 54.2313 52.0119 54.3474C51.9811 54.3624 51.9488 54.3768 51.9172 54.3911C51.6482 54.5179 51.3669 54.6426 51.0663 54.763C51.0577 54.7666 51.0491 54.7694 51.0405 54.773C49.4111 55.4229 47.3268 55.9697 44.8982 56.3279C44.886 56.3294 44.8738 56.3308 44.8616 56.333C44.3895 56.4025 43.9052 56.4641 43.408 56.5186C43.3269 56.5272 43.2415 56.5329 43.1597 56.5415C42.7257 56.5866 42.2866 56.6282 41.8345 56.6611C41.6279 56.6762 41.4112 56.6834 41.201 56.6963C40.8609 56.7163 40.5244 56.7385 40.1757 56.7507C39.6061 56.7686 39.0249 56.7801 38.4316 56.7801C37.8382 56.7801 37.2571 56.7686 36.6867 56.7486C36.338 56.7364 36.0015 56.7135 35.6614 56.6941C35.4512 56.6819 35.2345 56.674 35.0279 56.659C34.5759 56.626 34.1368 56.5845 33.7027 56.5393C33.6209 56.5307 33.5355 56.525 33.4545 56.5164C32.9572 56.4619 32.473 56.3996 32.0009 56.3308C31.9887 56.3294 31.9765 56.3279 31.9643 56.3258C29.5356 55.9675 27.4514 55.4208 25.822 54.7709C25.8134 54.768 25.8048 54.7644 25.7961 54.7608C25.4955 54.6405 25.2136 54.5158 24.9452 54.389C24.9144 54.3739 24.8814 54.3596 24.8505 54.3452C24.6094 54.2292 24.3863 54.1102 24.1725 53.9891C24.1223 53.9605 24.0692 53.9325 24.0204 53.9031C23.8346 53.7942 23.6653 53.6831 23.5031 53.5714C23.4414 53.5284 23.3775 53.4861 23.3187 53.4424C23.1817 53.3413 23.059 53.2396 22.9413 53.1371C22.8775 53.0812 22.8129 53.0253 22.7548 52.968C22.6586 52.8749 22.574 52.7817 22.4943 52.6871C22.4384 52.6212 22.3846 52.5553 22.3372 52.4886C22.2741 52.4005 22.2203 52.3124 22.1715 52.2242C22.1327 52.1533 22.0983 52.0824 22.0689 52.0114C22.0337 51.9247 22.0057 51.838 21.9856 51.7513C21.9591 51.6374 21.9297 51.5213 21.9297 51.4059C21.9297 51.325 21.939 51.244 21.9519 51.1637C21.9699 51.0555 21.9598 50.9473 21.9297 50.8449V45.5252C22.0158 45.6033 22.1141 45.6799 22.2073 45.7573C22.259 45.8003 22.3071 45.8433 22.3616 45.8863C22.5768 46.0554 22.8093 46.2224 23.0611 46.385C23.1135 46.4187 23.1723 46.4517 23.2269 46.4853C23.4378 46.6165 23.6609 46.7447 23.8956 46.8709C23.9824 46.9174 24.0692 46.9633 24.1589 47.0092C24.4208 47.1424 24.6955 47.2721 24.9847 47.3975C25.032 47.4183 25.0751 47.4398 25.1232 47.4599C25.4597 47.6025 25.817 47.7386 26.1886 47.8705C26.2912 47.907 26.3988 47.9414 26.5043 47.9772C26.7999 48.0768 27.1055 48.1721 27.4219 48.2646C27.536 48.2975 27.6479 48.3319 27.7649 48.3634C28.1846 48.4795 28.618 48.5899 29.0728 48.6916C29.1353 48.706 29.2027 48.7174 29.2658 48.731C29.6669 48.8185 30.083 48.8994 30.5107 48.9754C30.6556 49.0012 30.8027 49.0255 30.9505 49.0499C31.3573 49.1165 31.7763 49.1774 32.2061 49.2333C32.3165 49.2477 32.422 49.2641 32.5339 49.2778C33.0677 49.3423 33.6202 49.3974 34.1877 49.4447C34.3276 49.4562 34.4733 49.4648 34.6153 49.4748C35.0695 49.5078 35.5337 49.535 36.0087 49.5565C36.1816 49.5644 36.3538 49.5723 36.5303 49.5787C37.1487 49.5995 37.7787 49.6145 38.4316 49.6145C39.0845 49.6145 39.7144 49.5995 40.3329 49.5787C40.5087 49.5723 40.6809 49.5644 40.8545 49.5565C41.3294 49.535 41.7937 49.5078 42.2478 49.4748C42.3899 49.4641 42.5348 49.4562 42.6754 49.4447C43.243 49.3981 43.7954 49.3423 44.3292 49.2778C44.4411 49.2641 44.5466 49.2477 44.6571 49.2333C45.0869 49.1774 45.5051 49.1165 45.9127 49.0499C46.0605 49.0255 46.2076 49.0012 46.3525 48.9754C46.7801 48.8994 47.1962 48.8185 47.5973 48.731C47.6604 48.7174 47.7279 48.7052 47.7903 48.6916C48.2452 48.5899 48.6785 48.4788 49.0982 48.3634C49.2152 48.3312 49.3271 48.2975 49.4412 48.2646C49.7576 48.1721 50.0633 48.0768 50.3589 47.9772C50.4643 47.9414 50.5719 47.907 50.6745 47.8705C51.0462 47.7386 51.4042 47.6025 51.74 47.4599C51.7881 47.4398 51.8311 47.4183 51.8785 47.3975C52.1676 47.2714 52.4424 47.1424 52.7043 47.0092C52.794 46.9633 52.8815 46.9174 52.9676 46.8709C53.2022 46.7455 53.4253 46.6172 53.6363 46.4853C53.6908 46.4517 53.7496 46.4187 53.802 46.385C54.0538 46.2224 54.2863 46.0561 54.5015 45.8863C54.5554 45.8433 54.6034 45.8003 54.6558 45.7573C54.7491 45.6799 54.8474 45.6033 54.9335 45.5252ZM38.4316 37.4331C48.1569 37.4331 54.9335 40.2649 54.9335 42.8073C54.9335 45.3496 48.1569 48.1814 38.4316 48.1814C28.7062 48.1814 21.9297 45.3496 21.9297 42.8073C21.9297 40.2649 28.7062 37.4331 38.4316 37.4331ZM54.9335 68.7487C54.9234 68.7802 54.9162 68.8125 54.9105 68.8454C54.5037 71.324 47.7846 73.9774 38.4316 73.9774C29.0786 73.9774 22.3594 71.324 21.9526 68.8454C21.9469 68.8132 21.939 68.7817 21.9297 68.7516V62.7225C21.9498 62.7411 21.9749 62.759 21.9957 62.7777C22.1521 62.9152 22.3114 63.0521 22.4907 63.1839C25.1935 65.2254 30.5982 66.8119 38.4316 66.8119C46.2319 66.8119 51.623 65.2383 54.3372 63.209C54.5539 63.0514 54.7491 62.8887 54.9327 62.7232L54.9335 62.7225V68.7487Z" fill="#E8F5E9" stroke="#E8F5E9" stroke-width="2" stroke-linejoin="round"/>
<path d="M90.5625 50.8438C90.5625 45.5938 91.7917 41.4062 94.25 38.2812C96.7292 35.1354 100.01 33.5625 104.094 33.5625C107.948 33.5625 110.979 34.9062 113.188 37.5938L113.531 34.1875H120.375V66.9688C120.375 71.4062 118.99 74.9062 116.219 77.4688C113.469 80.0312 109.75 81.3125 105.062 81.3125C102.583 81.3125 100.156 80.7917 97.7812 79.75C95.4271 78.7292 93.6354 77.3854 92.4062 75.7188L96 71.1562C98.3333 73.9271 101.208 75.3125 104.625 75.3125C107.146 75.3125 109.135 74.625 110.594 73.25C112.052 71.8958 112.781 69.8958 112.781 67.25V64.9688C110.594 67.4062 107.677 68.625 104.031 68.625C100.073 68.625 96.8333 67.0521 94.3125 63.9062C91.8125 60.7604 90.5625 56.4062 90.5625 50.8438ZM98.125 51.5C98.125 54.8958 98.8125 57.5729 100.188 59.5312C101.583 61.4688 103.51 62.4375 105.969 62.4375C109.031 62.4375 111.302 61.125 112.781 58.5V43.625C111.344 41.0625 109.094 39.7812 106.031 39.7812C103.531 39.7812 101.583 40.7708 100.188 42.75C98.8125 44.7292 98.125 47.6458 98.125 51.5ZM126.781 50.7812C126.781 47.4688 127.438 44.4896 128.75 41.8438C130.062 39.1771 131.906 37.1354 134.281 35.7188C136.656 34.2812 139.385 33.5625 142.469 33.5625C147.031 33.5625 150.729 35.0312 153.562 37.9688C156.417 40.9062 157.958 44.8021 158.188 49.6562L158.219 51.4375C158.219 54.7708 157.573 57.75 156.281 60.375C155.01 63 153.177 65.0312 150.781 66.4688C148.406 67.9062 145.656 68.625 142.531 68.625C137.76 68.625 133.938 67.0417 131.062 63.875C128.208 60.6875 126.781 56.4479 126.781 51.1562V50.7812ZM134.375 51.4375C134.375 54.9167 135.094 57.6458 136.531 59.625C137.969 61.5833 139.969 62.5625 142.531 62.5625C145.094 62.5625 147.083 61.5625 148.5 59.5625C149.938 57.5625 150.656 54.6354 150.656 50.7812C150.656 47.3646 149.917 44.6562 148.438 42.6562C146.979 40.6562 144.99 39.6562 142.469 39.6562C139.99 39.6562 138.021 40.6458 136.562 42.625C135.104 44.5833 134.375 47.5208 134.375 51.4375ZM163.219 50.7812C163.219 47.4688 163.875 44.4896 165.188 41.8438C166.5 39.1771 168.344 37.1354 170.719 35.7188C173.094 34.2812 175.823 33.5625 178.906 33.5625C183.469 33.5625 187.167 35.0312 190 37.9688C192.854 40.9062 194.396 44.8021 194.625 49.6562L194.656 51.4375C194.656 54.7708 194.01 57.75 192.719 60.375C191.448 63 189.615 65.0312 187.219 66.4688C184.844 67.9062 182.094 68.625 178.969 68.625C174.198 68.625 170.375 67.0417 167.5 63.875C164.646 60.6875 163.219 56.4479 163.219 51.1562V50.7812ZM170.812 51.4375C170.812 54.9167 171.531 57.6458 172.969 59.625C174.406 61.5833 176.406 62.5625 178.969 62.5625C181.531 62.5625 183.521 61.5625 184.938 59.5625C186.375 57.5625 187.094 54.6354 187.094 50.7812C187.094 47.3646 186.354 44.6562 184.875 42.6562C183.417 40.6562 181.427 39.6562 178.906 39.6562C176.427 39.6562 174.458 40.6458 173 42.625C171.542 44.5833 170.812 47.5208 170.812 51.4375ZM199.75 50.8438C199.75 45.5938 200.979 41.4062 203.438 38.2812C205.917 35.1354 209.198 33.5625 213.281 33.5625C217.135 33.5625 220.167 34.9062 222.375 37.5938L222.719 34.1875H229.562V66.9688C229.562 71.4062 228.177 74.9062 225.406 77.4688C222.656 80.0312 218.938 81.3125 214.25 81.3125C211.771 81.3125 209.344 80.7917 206.969 79.75C204.615 78.7292 202.823 77.3854 201.594 75.7188L205.188 71.1562C207.521 73.9271 210.396 75.3125 213.812 75.3125C216.333 75.3125 218.323 74.625 219.781 73.25C221.24 71.8958 221.969 69.8958 221.969 67.25V64.9688C219.781 67.4062 216.865 68.625 213.219 68.625C209.26 68.625 206.021 67.0521 203.5 63.9062C201 60.7604 199.75 56.4062 199.75 50.8438ZM207.312 51.5C207.312 54.8958 208 57.5729 209.375 59.5312C210.771 61.4688 212.698 62.4375 215.156 62.4375C218.219 62.4375 220.49 61.125 221.969 58.5V43.625C220.531 41.0625 218.281 39.7812 215.219 39.7812C212.719 39.7812 210.771 40.7708 209.375 42.75C208 44.7292 207.312 47.6458 207.312 51.5ZM245.469 68H237.875V20H245.469V68ZM268.656 68.625C263.844 68.625 259.938 67.1146 256.938 64.0938C253.958 61.0521 252.469 57.0104 252.469 51.9688V51.0312C252.469 47.6562 253.115 44.6458 254.406 42C255.719 39.3333 257.552 37.2604 259.906 35.7812C262.26 34.3021 264.885 33.5625 267.781 33.5625C272.385 33.5625 275.938 35.0312 278.438 37.9688C280.958 40.9062 282.219 45.0625 282.219 50.4375V53.5H260.125C260.354 56.2917 261.281 58.5 262.906 60.125C264.552 61.75 266.615 62.5625 269.094 62.5625C272.573 62.5625 275.406 61.1562 277.594 58.3438L281.688 62.25C280.333 64.2708 278.521 65.8438 276.25 66.9688C274 68.0729 271.469 68.625 268.656 68.625ZM267.75 39.6562C265.667 39.6562 263.979 40.3854 262.688 41.8438C261.417 43.3021 260.604 45.3333 260.25 47.9375H274.719V47.375C274.552 44.8333 273.875 42.9167 272.688 41.625C271.5 40.3125 269.854 39.6562 267.75 39.6562ZM302.875 51.7188H286.469V45.5938H302.875V51.7188ZM328.094 58.8125C328.094 57.4583 327.531 56.4271 326.406 55.7188C325.302 55.0104 323.458 54.3854 320.875 53.8438C318.292 53.3021 316.135 52.6146 314.406 51.7812C310.615 49.9479 308.719 47.2917 308.719 43.8125C308.719 40.8958 309.948 38.4583 312.406 36.5C314.865 34.5417 317.99 33.5625 321.781 33.5625C325.823 33.5625 329.083 34.5625 331.562 36.5625C334.062 38.5625 335.312 41.1562 335.312 44.3438H327.719C327.719 42.8854 327.177 41.6771 326.094 40.7188C325.01 39.7396 323.573 39.25 321.781 39.25C320.115 39.25 318.75 39.6354 317.688 40.4062C316.646 41.1771 316.125 42.2083 316.125 43.5C316.125 44.6667 316.615 45.5729 317.594 46.2188C318.573 46.8646 320.552 47.5208 323.531 48.1875C326.51 48.8333 328.844 49.6146 330.531 50.5312C332.24 51.4271 333.5 52.5104 334.312 53.7812C335.146 55.0521 335.562 56.5938 335.562 58.4062C335.562 61.4479 334.302 63.9167 331.781 65.8125C329.26 67.6875 325.958 68.625 321.875 68.625C319.104 68.625 316.635 68.125 314.469 67.125C312.302 66.125 310.615 64.75 309.406 63C308.198 61.25 307.594 59.3646 307.594 57.3438H314.969C315.073 59.1354 315.75 60.5208 317 61.5C318.25 62.4583 319.906 62.9375 321.969 62.9375C323.969 62.9375 325.49 62.5625 326.531 61.8125C327.573 61.0417 328.094 60.0417 328.094 58.8125ZM349.688 37.875C352.167 35 355.302 33.5625 359.094 33.5625C366.302 33.5625 369.958 37.6771 370.062 45.9062V68H362.469V46.1875C362.469 43.8542 361.958 42.2083 360.938 41.25C359.938 40.2708 358.458 39.7812 356.5 39.7812C353.458 39.7812 351.188 41.1354 349.688 43.8438V68H342.094V20H349.688V37.875ZM392.656 68.625C387.844 68.625 383.938 67.1146 380.938 64.0938C377.958 61.0521 376.469 57.0104 376.469 51.9688V51.0312C376.469 47.6562 377.115 44.6458 378.406 42C379.719 39.3333 381.552 37.2604 383.906 35.7812C386.26 34.3021 388.885 33.5625 391.781 33.5625C396.385 33.5625 399.938 35.0312 402.438 37.9688C404.958 40.9062 406.219 45.0625 406.219 50.4375V53.5H384.125C384.354 56.2917 385.281 58.5 386.906 60.125C388.552 61.75 390.615 62.5625 393.094 62.5625C396.573 62.5625 399.406 61.1562 401.594 58.3438L405.688 62.25C404.333 64.2708 402.521 65.8438 400.25 66.9688C398 68.0729 395.469 68.625 392.656 68.625ZM391.75 39.6562C389.667 39.6562 387.979 40.3854 386.688 41.8438C385.417 43.3021 384.604 45.3333 384.25 47.9375H398.719V47.375C398.552 44.8333 397.875 42.9167 396.688 41.625C395.5 40.3125 393.854 39.6562 391.75 39.6562ZM427.031 68.625C422.219 68.625 418.312 67.1146 415.312 64.0938C412.333 61.0521 410.844 57.0104 410.844 51.9688V51.0312C410.844 47.6562 411.49 44.6458 412.781 42C414.094 39.3333 415.927 37.2604 418.281 35.7812C420.635 34.3021 423.26 33.5625 426.156 33.5625C430.76 33.5625 434.312 35.0312 436.812 37.9688C439.333 40.9062 440.594 45.0625 440.594 50.4375V53.5H418.5C418.729 56.2917 419.656 58.5 421.281 60.125C422.927 61.75 424.99 62.5625 427.469 62.5625C430.948 62.5625 433.781 61.1562 435.969 58.3438L440.062 62.25C438.708 64.2708 436.896 65.8438 434.625 66.9688C432.375 68.0729 429.844 68.625 427.031 68.625ZM426.125 39.6562C424.042 39.6562 422.354 40.3854 421.062 41.8438C419.792 43.3021 418.979 45.3333 418.625 47.9375H433.094V47.375C432.927 44.8333 432.25 42.9167 431.062 41.625C429.875 40.3125 428.229 39.6562 426.125 39.6562ZM456.031 25.9688V34.1875H462V39.8125H456.031V58.6875C456.031 59.9792 456.281 60.9167 456.781 61.5C457.302 62.0625 458.219 62.3438 459.531 62.3438C460.406 62.3438 461.292 62.2396 462.188 62.0312V67.9062C460.458 68.3854 458.792 68.625 457.188 68.625C451.354 68.625 448.438 65.4062 448.438 58.9688V39.8125H442.875V34.1875H448.438V25.9688H456.031ZM486.781 58.8125C486.781 57.4583 486.219 56.4271 485.094 55.7188C483.99 55.0104 482.146 54.3854 479.562 53.8438C476.979 53.3021 474.823 52.6146 473.094 51.7812C469.302 49.9479 467.406 47.2917 467.406 43.8125C467.406 40.8958 468.635 38.4583 471.094 36.5C473.552 34.5417 476.677 33.5625 480.469 33.5625C484.51 33.5625 487.771 34.5625 490.25 36.5625C492.75 38.5625 494 41.1562 494 44.3438H486.406C486.406 42.8854 485.865 41.6771 484.781 40.7188C483.698 39.7396 482.26 39.25 480.469 39.25C478.802 39.25 477.438 39.6354 476.375 40.4062C475.333 41.1771 474.812 42.2083 474.812 43.5C474.812 44.6667 475.302 45.5729 476.281 46.2188C477.26 46.8646 479.24 47.5208 482.219 48.1875C485.198 48.8333 487.531 49.6146 489.219 50.5312C490.927 51.4271 492.188 52.5104 493 53.7812C493.833 55.0521 494.25 56.5938 494.25 58.4062C494.25 61.4479 492.99 63.9167 490.469 65.8125C487.948 67.6875 484.646 68.625 480.562 68.625C477.792 68.625 475.323 68.125 473.156 67.125C470.99 66.125 469.302 64.75 468.094 63C466.885 61.25 466.281 59.3646 466.281 57.3438H473.656C473.76 59.1354 474.438 60.5208 475.688 61.5C476.938 62.4583 478.594 62.9375 480.656 62.9375C482.656 62.9375 484.177 62.5625 485.219 61.8125C486.26 61.0417 486.781 60.0417 486.781 58.8125Z" fill="#66BB6A"/>
<path d="M515.625 51.7188H499.219V45.5938H515.625V51.7188ZM520.469 50.8438C520.469 45.6354 521.677 41.4583 524.094 38.3125C526.51 35.1458 529.75 33.5625 533.812 33.5625C537.396 33.5625 540.292 34.8125 542.5 37.3125V20H550.094V68H543.219L542.844 64.5C540.573 67.25 537.542 68.625 533.75 68.625C529.792 68.625 526.583 67.0312 524.125 63.8438C521.688 60.6562 520.469 56.3229 520.469 50.8438ZM528.062 51.5C528.062 54.9375 528.719 57.625 530.031 59.5625C531.365 61.4792 533.25 62.4375 535.688 62.4375C538.792 62.4375 541.062 61.0521 542.5 58.2812V43.8438C541.104 41.1354 538.854 39.7812 535.75 39.7812C533.292 39.7812 531.396 40.7604 530.062 42.7188C528.729 44.6562 528.062 47.5833 528.062 51.5ZM587.688 51.4375C587.688 56.6875 586.51 60.8646 584.156 63.9688C581.823 67.0729 578.604 68.625 574.5 68.625C570.542 68.625 567.458 67.1979 565.25 64.3438L564.875 68H558V20H565.594V37.4375C567.781 34.8542 570.729 33.5625 574.438 33.5625C578.562 33.5625 581.802 35.0938 584.156 38.1562C586.51 41.2188 587.688 45.5 587.688 51V51.4375ZM580.094 50.7812C580.094 47.1146 579.448 44.3646 578.156 42.5312C576.865 40.6979 574.99 39.7812 572.531 39.7812C569.24 39.7812 566.927 41.2188 565.594 44.0938V58.0312C566.948 60.9688 569.281 62.4375 572.594 62.4375C574.969 62.4375 576.802 61.5521 578.094 59.7812C579.385 58.0104 580.052 55.3333 580.094 51.75V50.7812Z" fill="#828282"/>
</svg>
