<svg width="610" height="96" viewBox="0 0 610 96" fill="none" xmlns="http://www.w3.org/2000/svg">
<path d="M75.2316 92.0211H20.7684C19.1017 92.0211 17.5033 91.359 16.3248 90.1805C15.1463 89.0019 14.4842 87.4035 14.4842 85.7368V10.3263C14.4842 8.65965 15.1463 7.06124 16.3248 5.88272C17.5033 4.7042 19.1017 4.04211 20.7684 4.04211H60.5684L81.5158 24.9895V85.7368C81.5158 87.4035 80.8537 89.0019 79.6752 90.1805C78.4967 91.359 76.8983 92.0211 75.2316 92.0211Z" fill="#43A047"/>
<path d="M81.5158 24.9895H60.5684V4.04211L81.5158 24.9895Z" fill="#C8E6C9"/>
<path d="M60.5684 24.9895L81.5158 45.9369V24.9895H60.5684Z" fill="#2E7D32"/>
<path d="M65.7479 42.14C64.917 39.066 58.7331 36.0421 47.9158 36.0421C37.0984 36.0421 30.9138 39.066 30.0837 42.14C30.0234 42.2453 29.979 42.3607 29.979 42.4911V42.8494V51.0898V51.448V51.8063V59.6884V60.0467V60.405V69.0036C29.979 69.1197 30.0098 69.2294 30.0629 69.3268C30.9102 72.8343 38.4911 75.4526 47.9158 75.4526C57.319 75.4526 64.8876 72.8451 65.7629 69.3505C65.8203 69.248 65.8526 69.1298 65.8526 69.0036V60.405V60.0467V59.6884V51.8063V51.448V51.0898V42.8494V42.4911C65.8526 42.3607 65.8081 42.2453 65.7479 42.14ZM64.361 60.3942C64.3409 60.4809 64.3129 60.5669 64.2778 60.6543C64.2491 60.7253 64.2139 60.7962 64.1752 60.8672C64.1271 60.9553 64.0733 61.0434 64.0094 61.1316C63.9621 61.1982 63.9083 61.2641 63.8523 61.3301C63.7727 61.4239 63.688 61.5178 63.5919 61.6109C63.5337 61.6676 63.4699 61.7234 63.4053 61.7801C63.2877 61.8825 63.165 61.9843 63.0279 62.0853C62.9691 62.129 62.906 62.1713 62.8435 62.2143C62.6814 62.3261 62.5121 62.4371 62.3262 62.546C62.2775 62.5754 62.2251 62.6034 62.1741 62.632C61.9603 62.7524 61.7372 62.8721 61.4961 62.9882C61.4653 63.0032 61.433 63.0175 61.4014 63.0319C61.1324 63.1587 60.8511 63.2834 60.5505 63.4038C60.5419 63.4074 60.5333 63.4102 60.5247 63.4138C58.8953 64.0637 56.811 64.6104 54.3824 64.9687C54.3702 64.9702 54.358 64.9716 54.3458 64.9737C53.8737 65.0432 53.3894 65.1049 52.8922 65.1593C52.8111 65.1679 52.7257 65.1737 52.6439 65.1823C52.2099 65.2274 51.7708 65.269 51.3188 65.3019C51.1121 65.317 50.8955 65.3241 50.6852 65.337C50.3452 65.3571 50.0087 65.3793 49.66 65.3915C49.0903 65.4094 48.5091 65.4209 47.9158 65.4209C47.3224 65.4209 46.7413 65.4094 46.1709 65.3893C45.8222 65.3772 45.4857 65.3542 45.1456 65.3349C44.9354 65.3227 44.7187 65.3148 44.5121 65.2998C44.0601 65.2668 43.621 65.2253 43.1869 65.1801C43.1051 65.1715 43.0197 65.1658 42.9387 65.1572C42.4415 65.1027 41.9572 65.0404 41.4851 64.9716C41.4729 64.9702 41.4607 64.9687 41.4485 64.9666C39.0198 64.6083 36.9356 64.0616 35.3062 63.4116C35.2976 63.4088 35.289 63.4052 35.2804 63.4016C34.9797 63.2812 34.6978 63.1566 34.4294 63.0297C34.3986 63.0147 34.3656 63.0003 34.3347 62.986C34.0937 62.8699 33.8705 62.751 33.6567 62.6299C33.6065 62.6012 33.5534 62.5733 33.5046 62.5439C33.3188 62.435 33.1495 62.3239 32.9873 62.2121C32.9256 62.1691 32.8618 62.1269 32.8029 62.0832C32.6659 61.9821 32.5432 61.8804 32.4255 61.7779C32.3617 61.722 32.2971 61.6661 32.239 61.6088C32.1429 61.5156 32.0582 61.4225 31.9785 61.3279C31.9226 61.262 31.8688 61.1961 31.8214 61.1294C31.7583 61.0413 31.7045 60.9531 31.6557 60.865C31.6169 60.7941 31.5825 60.7231 31.5531 60.6522C31.5179 60.5655 31.4899 60.4788 31.4699 60.3921C31.4433 60.2782 31.4139 60.1621 31.4139 60.0467C31.4139 59.9657 31.4232 59.8848 31.4361 59.8045C31.4541 59.6963 31.444 59.5881 31.4139 59.4856V54.1659C31.434 54.1846 31.4591 54.2025 31.4799 54.2211C31.6363 54.3587 31.7956 54.4956 31.975 54.6274C34.6777 56.6689 40.0824 58.2553 47.9158 58.2553C55.7162 58.2553 61.1073 56.6818 63.8215 54.6525C64.0381 54.4948 64.2333 54.3322 64.417 54.1667L64.4177 54.1659V59.4856C64.3875 59.5881 64.3775 59.6963 64.3954 59.8045C64.4091 59.8848 64.4177 59.9657 64.4177 60.0467C64.4177 60.1621 64.3883 60.2782 64.361 60.3942ZM64.4177 45.5673V50.887C64.3875 50.9895 64.3775 51.0977 64.3954 51.2059C64.4091 51.2861 64.4177 51.3671 64.4177 51.448C64.4177 51.5634 64.3883 51.6795 64.361 51.7956C64.3409 51.8823 64.3129 51.9683 64.2778 52.0557C64.2491 52.1266 64.2139 52.1976 64.1752 52.2685C64.1271 52.3566 64.0733 52.4448 64.0094 52.5329C63.9621 52.5996 63.9083 52.6655 63.8523 52.7314C63.7727 52.8253 63.688 52.9191 63.5919 53.0123C63.5337 53.0689 63.4699 53.1248 63.4053 53.1814C63.2877 53.2839 63.165 53.3856 63.0279 53.4866C62.9691 53.5304 62.906 53.5726 62.8435 53.6156C62.6814 53.7274 62.5121 53.8385 62.3262 53.9474C62.2775 53.9768 62.2251 54.0047 62.1741 54.0334C61.9603 54.1538 61.7372 54.2734 61.4961 54.3895C61.4653 54.4046 61.433 54.4189 61.4014 54.4332C61.1324 54.56 60.8511 54.6847 60.5505 54.8051C60.5419 54.8087 60.5333 54.8116 60.5247 54.8151C58.8953 55.4651 56.811 56.0118 54.3824 56.3701C54.3702 56.3715 54.358 56.3729 54.3458 56.3751C53.8737 56.4446 53.3894 56.5062 52.8922 56.5607C52.8111 56.5693 52.7257 56.575 52.6439 56.5836C52.2099 56.6287 51.7708 56.6703 51.3188 56.7033C51.1121 56.7183 50.8955 56.7255 50.6852 56.7384C50.3452 56.7584 50.0087 56.7806 49.66 56.7928C49.0903 56.8107 48.5091 56.8222 47.9158 56.8222C47.3224 56.8222 46.7413 56.8107 46.1709 56.7907C45.8222 56.7785 45.4857 56.7556 45.1456 56.7362C44.9354 56.724 44.7187 56.7162 44.5121 56.7011C44.0601 56.6681 43.621 56.6266 43.1869 56.5814C43.1051 56.5728 43.0197 56.5671 42.9387 56.5585C42.4415 56.5041 41.9572 56.4417 41.4851 56.3729C41.4729 56.3715 41.4607 56.3701 41.4485 56.3679C39.0198 56.0096 36.9356 55.4629 35.3062 54.813C35.2976 54.8101 35.289 54.8065 35.2804 54.803C34.9797 54.6826 34.6978 54.5579 34.4294 54.4311C34.3986 54.416 34.3656 54.4017 34.3347 54.3874C34.0937 54.2713 33.8705 54.1523 33.6567 54.0312C33.6065 54.0026 33.5534 53.9746 33.5046 53.9452C33.3188 53.8363 33.1495 53.7253 32.9873 53.6135C32.9256 53.5705 32.8618 53.5282 32.8029 53.4845C32.6659 53.3835 32.5432 53.2817 32.4255 53.1792C32.3617 53.1234 32.2971 53.0675 32.239 53.0101C32.1429 52.917 32.0582 52.8238 31.9785 52.7292C31.9226 52.6633 31.8688 52.5974 31.8214 52.5308C31.7583 52.4426 31.7045 52.3545 31.6557 52.2664C31.6169 52.1954 31.5825 52.1245 31.5531 52.0535C31.5179 51.9668 31.4899 51.8801 31.4699 51.7934C31.4433 51.6795 31.4139 51.5634 31.4139 51.448C31.4139 51.3671 31.4232 51.2861 31.4361 51.2059C31.4541 51.0977 31.444 50.9895 31.4139 50.887V45.5673C31.5 45.6454 31.5983 45.7221 31.6916 45.7994C31.7432 45.8424 31.7913 45.8854 31.8458 45.9284C32.0611 46.0975 32.2935 46.2645 32.5454 46.4271C32.5977 46.4608 32.6566 46.4938 32.7111 46.5275C32.922 46.6586 33.1452 46.7869 33.3798 46.913C33.4666 46.9595 33.5534 47.0054 33.6431 47.0513C33.905 47.1845 34.1798 47.3142 34.4689 47.4396C34.5163 47.4604 34.5593 47.4819 34.6074 47.502C34.9439 47.6446 35.3012 47.7807 35.6728 47.9126C35.7754 47.9491 35.883 47.9835 35.9885 48.0193C36.2841 48.1189 36.5898 48.2142 36.9062 48.3067C37.0202 48.3396 37.1322 48.374 37.2491 48.4056C37.6688 48.5216 38.1022 48.632 38.5571 48.7337C38.6195 48.7481 38.6869 48.7595 38.7501 48.7731C39.1511 48.8606 39.5673 48.9415 39.9949 49.0175C40.1398 49.0433 40.2869 49.0677 40.4347 49.092C40.8415 49.1587 41.2605 49.2196 41.6903 49.2755C41.8008 49.2898 41.9062 49.3063 42.0182 49.3199C42.552 49.3844 43.1044 49.4395 43.6719 49.4868C43.8118 49.4983 43.9575 49.5069 44.0995 49.5169C44.5537 49.5499 45.0179 49.5771 45.4929 49.5986C45.6658 49.6065 45.838 49.6144 46.0145 49.6208C46.6329 49.6416 47.2629 49.6567 47.9158 49.6567C48.5687 49.6567 49.1986 49.6416 49.8171 49.6208C49.9929 49.6144 50.1651 49.6065 50.3387 49.5986C50.8137 49.5771 51.2779 49.5499 51.732 49.5169C51.8741 49.5062 52.019 49.4983 52.1596 49.4868C52.7272 49.4403 53.2796 49.3844 53.8134 49.3199C53.9253 49.3063 54.0308 49.2898 54.1413 49.2755C54.5711 49.2196 54.9894 49.1587 55.3969 49.092C55.5447 49.0677 55.6918 49.0433 55.8367 49.0175C56.2643 48.9415 56.6804 48.8606 57.0815 48.7731C57.1446 48.7595 57.2121 48.7474 57.2745 48.7337C57.7294 48.632 58.1627 48.5209 58.5825 48.4056C58.6994 48.3733 58.8113 48.3396 58.9254 48.3067C59.2418 48.2142 59.5475 48.1189 59.8431 48.0193C59.9485 47.9835 60.0562 47.9491 60.1588 47.9126C60.5304 47.7807 60.8884 47.6446 61.2242 47.502C61.2723 47.4819 61.3153 47.4604 61.3627 47.4396C61.6518 47.3135 61.9266 47.1845 62.1885 47.0513C62.2782 47.0054 62.3657 46.9595 62.4518 46.913C62.6864 46.7876 62.9095 46.6593 63.1205 46.5275C63.175 46.4938 63.2338 46.4608 63.2862 46.4271C63.5381 46.2645 63.7705 46.0982 63.9858 45.9284C64.0396 45.8854 64.0876 45.8424 64.14 45.7994C64.2333 45.7221 64.3316 45.6454 64.4177 45.5673ZM47.9158 37.4752C57.6411 37.4752 64.4177 40.307 64.4177 42.8494C64.4177 45.3917 57.6411 48.2235 47.9158 48.2235C38.1904 48.2235 31.4139 45.3917 31.4139 42.8494C31.4139 40.307 38.1904 37.4752 47.9158 37.4752ZM64.4177 68.7908C64.4076 68.8224 64.4005 68.8546 64.3947 68.8876C63.9879 71.3661 57.2688 74.0195 47.9158 74.0195C38.5628 74.0195 31.8437 71.3661 31.4369 68.8876C31.4311 68.8553 31.4232 68.8238 31.4139 68.7937V62.7646C31.434 62.7832 31.4591 62.8011 31.4799 62.8198C31.6363 62.9574 31.7956 63.0942 31.975 63.2261C34.6777 65.2675 40.0824 66.854 47.9158 66.854C55.7162 66.854 61.1073 65.2804 63.8215 63.2511C64.0381 63.0935 64.2333 62.9308 64.417 62.7653L64.4177 62.7646V68.7908Z" fill="#E8F5E9" stroke="#E8F5E9" stroke-width="2" stroke-linejoin="round"/>
<path d="M109.562 47.8438C109.562 42.5938 110.792 38.4062 113.25 35.2812C115.729 32.1354 119.01 30.5625 123.094 30.5625C126.948 30.5625 129.979 31.9062 132.188 34.5938L132.531 31.1875H139.375V63.9688C139.375 68.4062 137.99 71.9062 135.219 74.4688C132.469 77.0312 128.75 78.3125 124.062 78.3125C121.583 78.3125 119.156 77.7917 116.781 76.75C114.427 75.7292 112.635 74.3854 111.406 72.7188L115 68.1562C117.333 70.9271 120.208 72.3125 123.625 72.3125C126.146 72.3125 128.135 71.625 129.594 70.25C131.052 68.8958 131.781 66.8958 131.781 64.25V61.9688C129.594 64.4062 126.677 65.625 123.031 65.625C119.073 65.625 115.833 64.0521 113.312 60.9062C110.812 57.7604 109.562 53.4062 109.562 47.8438ZM117.125 48.5C117.125 51.8958 117.812 54.5729 119.188 56.5312C120.583 58.4688 122.51 59.4375 124.969 59.4375C128.031 59.4375 130.302 58.125 131.781 55.5V40.625C130.344 38.0625 128.094 36.7812 125.031 36.7812C122.531 36.7812 120.583 37.7708 119.188 39.75C117.812 41.7292 117.125 44.6458 117.125 48.5ZM145.781 47.7812C145.781 44.4688 146.438 41.4896 147.75 38.8438C149.062 36.1771 150.906 34.1354 153.281 32.7188C155.656 31.2812 158.385 30.5625 161.469 30.5625C166.031 30.5625 169.729 32.0312 172.562 34.9688C175.417 37.9062 176.958 41.8021 177.188 46.6562L177.219 48.4375C177.219 51.7708 176.573 54.75 175.281 57.375C174.01 60 172.177 62.0312 169.781 63.4688C167.406 64.9062 164.656 65.625 161.531 65.625C156.76 65.625 152.938 64.0417 150.062 60.875C147.208 57.6875 145.781 53.4479 145.781 48.1562V47.7812ZM153.375 48.4375C153.375 51.9167 154.094 54.6458 155.531 56.625C156.969 58.5833 158.969 59.5625 161.531 59.5625C164.094 59.5625 166.083 58.5625 167.5 56.5625C168.938 54.5625 169.656 51.6354 169.656 47.7812C169.656 44.3646 168.917 41.6562 167.438 39.6562C165.979 37.6562 163.99 36.6562 161.469 36.6562C158.99 36.6562 157.021 37.6458 155.562 39.625C154.104 41.5833 153.375 44.5208 153.375 48.4375ZM182.219 47.7812C182.219 44.4688 182.875 41.4896 184.188 38.8438C185.5 36.1771 187.344 34.1354 189.719 32.7188C192.094 31.2812 194.823 30.5625 197.906 30.5625C202.469 30.5625 206.167 32.0312 209 34.9688C211.854 37.9062 213.396 41.8021 213.625 46.6562L213.656 48.4375C213.656 51.7708 213.01 54.75 211.719 57.375C210.448 60 208.615 62.0312 206.219 63.4688C203.844 64.9062 201.094 65.625 197.969 65.625C193.198 65.625 189.375 64.0417 186.5 60.875C183.646 57.6875 182.219 53.4479 182.219 48.1562V47.7812ZM189.812 48.4375C189.812 51.9167 190.531 54.6458 191.969 56.625C193.406 58.5833 195.406 59.5625 197.969 59.5625C200.531 59.5625 202.521 58.5625 203.938 56.5625C205.375 54.5625 206.094 51.6354 206.094 47.7812C206.094 44.3646 205.354 41.6562 203.875 39.6562C202.417 37.6562 200.427 36.6562 197.906 36.6562C195.427 36.6562 193.458 37.6458 192 39.625C190.542 41.5833 189.812 44.5208 189.812 48.4375ZM218.75 47.8438C218.75 42.5938 219.979 38.4062 222.438 35.2812C224.917 32.1354 228.198 30.5625 232.281 30.5625C236.135 30.5625 239.167 31.9062 241.375 34.5938L241.719 31.1875H248.562V63.9688C248.562 68.4062 247.177 71.9062 244.406 74.4688C241.656 77.0312 237.938 78.3125 233.25 78.3125C230.771 78.3125 228.344 77.7917 225.969 76.75C223.615 75.7292 221.823 74.3854 220.594 72.7188L224.188 68.1562C226.521 70.9271 229.396 72.3125 232.812 72.3125C235.333 72.3125 237.323 71.625 238.781 70.25C240.24 68.8958 240.969 66.8958 240.969 64.25V61.9688C238.781 64.4062 235.865 65.625 232.219 65.625C228.26 65.625 225.021 64.0521 222.5 60.9062C220 57.7604 218.75 53.4062 218.75 47.8438ZM226.312 48.5C226.312 51.8958 227 54.5729 228.375 56.5312C229.771 58.4688 231.698 59.4375 234.156 59.4375C237.219 59.4375 239.49 58.125 240.969 55.5V40.625C239.531 38.0625 237.281 36.7812 234.219 36.7812C231.719 36.7812 229.771 37.7708 228.375 39.75C227 41.7292 226.312 44.6458 226.312 48.5ZM264.469 65H256.875V17H264.469V65ZM287.656 65.625C282.844 65.625 278.938 64.1146 275.938 61.0938C272.958 58.0521 271.469 54.0104 271.469 48.9688V48.0312C271.469 44.6562 272.115 41.6458 273.406 39C274.719 36.3333 276.552 34.2604 278.906 32.7812C281.26 31.3021 283.885 30.5625 286.781 30.5625C291.385 30.5625 294.938 32.0312 297.438 34.9688C299.958 37.9062 301.219 42.0625 301.219 47.4375V50.5H279.125C279.354 53.2917 280.281 55.5 281.906 57.125C283.552 58.75 285.615 59.5625 288.094 59.5625C291.573 59.5625 294.406 58.1562 296.594 55.3438L300.688 59.25C299.333 61.2708 297.521 62.8438 295.25 63.9688C293 65.0729 290.469 65.625 287.656 65.625ZM286.75 36.6562C284.667 36.6562 282.979 37.3854 281.688 38.8438C280.417 40.3021 279.604 42.3333 279.25 44.9375H293.719V44.375C293.552 41.8333 292.875 39.9167 291.688 38.625C290.5 37.3125 288.854 36.6562 286.75 36.6562ZM321.875 48.7188H305.469V42.5938H321.875V48.7188ZM347.094 55.8125C347.094 54.4583 346.531 53.4271 345.406 52.7188C344.302 52.0104 342.458 51.3854 339.875 50.8438C337.292 50.3021 335.135 49.6146 333.406 48.7812C329.615 46.9479 327.719 44.2917 327.719 40.8125C327.719 37.8958 328.948 35.4583 331.406 33.5C333.865 31.5417 336.99 30.5625 340.781 30.5625C344.823 30.5625 348.083 31.5625 350.562 33.5625C353.062 35.5625 354.312 38.1562 354.312 41.3438H346.719C346.719 39.8854 346.177 38.6771 345.094 37.7188C344.01 36.7396 342.573 36.25 340.781 36.25C339.115 36.25 337.75 36.6354 336.688 37.4062C335.646 38.1771 335.125 39.2083 335.125 40.5C335.125 41.6667 335.615 42.5729 336.594 43.2188C337.573 43.8646 339.552 44.5208 342.531 45.1875C345.51 45.8333 347.844 46.6146 349.531 47.5312C351.24 48.4271 352.5 49.5104 353.312 50.7812C354.146 52.0521 354.562 53.5938 354.562 55.4062C354.562 58.4479 353.302 60.9167 350.781 62.8125C348.26 64.6875 344.958 65.625 340.875 65.625C338.104 65.625 335.635 65.125 333.469 64.125C331.302 63.125 329.615 61.75 328.406 60C327.198 58.25 326.594 56.3646 326.594 54.3438H333.969C334.073 56.1354 334.75 57.5208 336 58.5C337.25 59.4583 338.906 59.9375 340.969 59.9375C342.969 59.9375 344.49 59.5625 345.531 58.8125C346.573 58.0417 347.094 57.0417 347.094 55.8125ZM368.688 34.875C371.167 32 374.302 30.5625 378.094 30.5625C385.302 30.5625 388.958 34.6771 389.062 42.9062V65H381.469V43.1875C381.469 40.8542 380.958 39.2083 379.938 38.25C378.938 37.2708 377.458 36.7812 375.5 36.7812C372.458 36.7812 370.188 38.1354 368.688 40.8438V65H361.094V17H368.688V34.875ZM411.656 65.625C406.844 65.625 402.938 64.1146 399.938 61.0938C396.958 58.0521 395.469 54.0104 395.469 48.9688V48.0312C395.469 44.6562 396.115 41.6458 397.406 39C398.719 36.3333 400.552 34.2604 402.906 32.7812C405.26 31.3021 407.885 30.5625 410.781 30.5625C415.385 30.5625 418.938 32.0312 421.438 34.9688C423.958 37.9062 425.219 42.0625 425.219 47.4375V50.5H403.125C403.354 53.2917 404.281 55.5 405.906 57.125C407.552 58.75 409.615 59.5625 412.094 59.5625C415.573 59.5625 418.406 58.1562 420.594 55.3438L424.688 59.25C423.333 61.2708 421.521 62.8438 419.25 63.9688C417 65.0729 414.469 65.625 411.656 65.625ZM410.75 36.6562C408.667 36.6562 406.979 37.3854 405.688 38.8438C404.417 40.3021 403.604 42.3333 403.25 44.9375H417.719V44.375C417.552 41.8333 416.875 39.9167 415.688 38.625C414.5 37.3125 412.854 36.6562 410.75 36.6562ZM446.031 65.625C441.219 65.625 437.312 64.1146 434.312 61.0938C431.333 58.0521 429.844 54.0104 429.844 48.9688V48.0312C429.844 44.6562 430.49 41.6458 431.781 39C433.094 36.3333 434.927 34.2604 437.281 32.7812C439.635 31.3021 442.26 30.5625 445.156 30.5625C449.76 30.5625 453.312 32.0312 455.812 34.9688C458.333 37.9062 459.594 42.0625 459.594 47.4375V50.5H437.5C437.729 53.2917 438.656 55.5 440.281 57.125C441.927 58.75 443.99 59.5625 446.469 59.5625C449.948 59.5625 452.781 58.1562 454.969 55.3438L459.062 59.25C457.708 61.2708 455.896 62.8438 453.625 63.9688C451.375 65.0729 448.844 65.625 446.031 65.625ZM445.125 36.6562C443.042 36.6562 441.354 37.3854 440.062 38.8438C438.792 40.3021 437.979 42.3333 437.625 44.9375H452.094V44.375C451.927 41.8333 451.25 39.9167 450.062 38.625C448.875 37.3125 447.229 36.6562 445.125 36.6562ZM475.031 22.9688V31.1875H481V36.8125H475.031V55.6875C475.031 56.9792 475.281 57.9167 475.781 58.5C476.302 59.0625 477.219 59.3438 478.531 59.3438C479.406 59.3438 480.292 59.2396 481.188 59.0312V64.9062C479.458 65.3854 477.792 65.625 476.188 65.625C470.354 65.625 467.438 62.4062 467.438 55.9688V36.8125H461.875V31.1875H467.438V22.9688H475.031ZM505.781 55.8125C505.781 54.4583 505.219 53.4271 504.094 52.7188C502.99 52.0104 501.146 51.3854 498.562 50.8438C495.979 50.3021 493.823 49.6146 492.094 48.7812C488.302 46.9479 486.406 44.2917 486.406 40.8125C486.406 37.8958 487.635 35.4583 490.094 33.5C492.552 31.5417 495.677 30.5625 499.469 30.5625C503.51 30.5625 506.771 31.5625 509.25 33.5625C511.75 35.5625 513 38.1562 513 41.3438H505.406C505.406 39.8854 504.865 38.6771 503.781 37.7188C502.698 36.7396 501.26 36.25 499.469 36.25C497.802 36.25 496.438 36.6354 495.375 37.4062C494.333 38.1771 493.812 39.2083 493.812 40.5C493.812 41.6667 494.302 42.5729 495.281 43.2188C496.26 43.8646 498.24 44.5208 501.219 45.1875C504.198 45.8333 506.531 46.6146 508.219 47.5312C509.927 48.4271 511.188 49.5104 512 50.7812C512.833 52.0521 513.25 53.5938 513.25 55.4062C513.25 58.4479 511.99 60.9167 509.469 62.8125C506.948 64.6875 503.646 65.625 499.562 65.625C496.792 65.625 494.323 65.125 492.156 64.125C489.99 63.125 488.302 61.75 487.094 60C485.885 58.25 485.281 56.3646 485.281 54.3438H492.656C492.76 56.1354 493.438 57.5208 494.688 58.5C495.938 59.4583 497.594 59.9375 499.656 59.9375C501.656 59.9375 503.177 59.5625 504.219 58.8125C505.26 58.0417 505.781 57.0417 505.781 55.8125Z" fill="#66BB6A"/>
<path d="M534.625 48.7188H518.219V42.5938H534.625V48.7188ZM539.469 47.8438C539.469 42.6354 540.677 38.4583 543.094 35.3125C545.51 32.1458 548.75 30.5625 552.812 30.5625C556.396 30.5625 559.292 31.8125 561.5 34.3125V17H569.094V65H562.219L561.844 61.5C559.573 64.25 556.542 65.625 552.75 65.625C548.792 65.625 545.583 64.0312 543.125 60.8438C540.688 57.6562 539.469 53.3229 539.469 47.8438ZM547.062 48.5C547.062 51.9375 547.719 54.625 549.031 56.5625C550.365 58.4792 552.25 59.4375 554.688 59.4375C557.792 59.4375 560.062 58.0521 561.5 55.2812V40.8438C560.104 38.1354 557.854 36.7812 554.75 36.7812C552.292 36.7812 550.396 37.7604 549.062 39.7188C547.729 41.6562 547.062 44.5833 547.062 48.5ZM606.688 48.4375C606.688 53.6875 605.51 57.8646 603.156 60.9688C600.823 64.0729 597.604 65.625 593.5 65.625C589.542 65.625 586.458 64.1979 584.25 61.3438L583.875 65H577V17H584.594V34.4375C586.781 31.8542 589.729 30.5625 593.438 30.5625C597.562 30.5625 600.802 32.0938 603.156 35.1562C605.51 38.2188 606.688 42.5 606.688 48V48.4375ZM599.094 47.7812C599.094 44.1146 598.448 41.3646 597.156 39.5312C595.865 37.6979 593.99 36.7812 591.531 36.7812C588.24 36.7812 585.927 38.2188 584.594 41.0938V55.0312C585.948 57.9688 588.281 59.4375 591.594 59.4375C593.969 59.4375 595.802 58.5521 597.094 56.7812C598.385 55.0104 599.052 52.3333 599.094 48.75V47.7812Z" fill="#828282"/>
</svg>
